G04 EAGLE Gerber RS-274X export*
G75*
%MOMM*%
%FSLAX34Y34*%
%LPD*%
%INBottom Copper*%
%IPPOS*%
%AMOC8*
5,1,8,0,0,1.08239X$1,22.5*%
G01*
%ADD10C,1.524000*%
%ADD11C,1.790700*%
%ADD12C,2.540000*%
%ADD13C,1.778000*%
%ADD14C,1.778000*%
%ADD15C,1.930400*%
%ADD16C,1.016000*%
%ADD17P,1.429621X8X202.500000*%
%ADD18P,1.429621X8X22.500000*%
%ADD19P,1.429621X8X112.500000*%
%ADD20C,0.508000*%
%ADD21C,0.406400*%
%ADD22C,0.609600*%
%ADD23C,0.304800*%
%ADD24C,0.889000*%


D10*
X192481Y515366D02*
X192481Y500126D01*
X217881Y500126D02*
X217881Y515366D01*
X243281Y515366D02*
X243281Y500126D01*
X268681Y500126D02*
X268681Y515366D01*
X294081Y515366D02*
X294081Y500126D01*
X319481Y500126D02*
X319481Y515366D01*
X344881Y515366D02*
X344881Y500126D01*
X370281Y500126D02*
X370281Y515366D01*
X395681Y515366D02*
X395681Y500126D01*
X421081Y500126D02*
X421081Y515366D01*
X460451Y515366D02*
X460451Y500126D01*
X485851Y500126D02*
X485851Y515366D01*
X511251Y515366D02*
X511251Y500126D01*
X536651Y500126D02*
X536651Y515366D01*
X562051Y515366D02*
X562051Y500126D01*
X587451Y500126D02*
X587451Y515366D01*
X612851Y515366D02*
X612851Y500126D01*
X638251Y500126D02*
X638251Y515366D01*
X512521Y32766D02*
X512521Y17526D01*
X537921Y17526D02*
X537921Y32766D01*
X563321Y32766D02*
X563321Y17526D01*
X588721Y17526D02*
X588721Y32766D01*
X614121Y32766D02*
X614121Y17526D01*
X639521Y17526D02*
X639521Y32766D01*
X282651Y32766D02*
X282651Y17526D01*
X308051Y17526D02*
X308051Y32766D01*
X333451Y32766D02*
X333451Y17526D01*
X358851Y17526D02*
X358851Y32766D01*
X384251Y32766D02*
X384251Y17526D01*
X409651Y17526D02*
X409651Y32766D01*
X435051Y32766D02*
X435051Y17526D01*
X460451Y17526D02*
X460451Y32766D01*
D11*
X60770Y559308D02*
X42863Y559308D01*
X167831Y559308D02*
X185738Y559308D01*
X60770Y609092D02*
X42863Y609092D01*
X167831Y609092D02*
X185738Y609092D01*
X220663Y559308D02*
X238570Y559308D01*
X345631Y559308D02*
X363538Y559308D01*
X238570Y609092D02*
X220663Y609092D01*
X345631Y609092D02*
X363538Y609092D01*
X398463Y559308D02*
X416370Y559308D01*
X523431Y559308D02*
X541338Y559308D01*
X416370Y609092D02*
X398463Y609092D01*
X523431Y609092D02*
X541338Y609092D01*
X576263Y559308D02*
X594170Y559308D01*
X701231Y559308D02*
X719138Y559308D01*
X594170Y609092D02*
X576263Y609092D01*
X701231Y609092D02*
X719138Y609092D01*
X754063Y559308D02*
X771970Y559308D01*
X879031Y559308D02*
X896938Y559308D01*
X771970Y609092D02*
X754063Y609092D01*
X879031Y609092D02*
X896938Y609092D01*
X60770Y406908D02*
X42863Y406908D01*
X167831Y406908D02*
X185738Y406908D01*
X60770Y456692D02*
X42863Y456692D01*
X167831Y456692D02*
X185738Y456692D01*
X220663Y406908D02*
X238570Y406908D01*
X345631Y406908D02*
X363538Y406908D01*
X238570Y456692D02*
X220663Y456692D01*
X345631Y456692D02*
X363538Y456692D01*
X398463Y406908D02*
X416370Y406908D01*
X523431Y406908D02*
X541338Y406908D01*
X416370Y456692D02*
X398463Y456692D01*
X523431Y456692D02*
X541338Y456692D01*
X576263Y406908D02*
X594170Y406908D01*
X701231Y406908D02*
X719138Y406908D01*
X594170Y456692D02*
X576263Y456692D01*
X701231Y456692D02*
X719138Y456692D01*
X754063Y406908D02*
X771970Y406908D01*
X879031Y406908D02*
X896938Y406908D01*
X771970Y456692D02*
X754063Y456692D01*
X879031Y456692D02*
X896938Y456692D01*
X60770Y254508D02*
X42863Y254508D01*
X167831Y254508D02*
X185738Y254508D01*
X60770Y304292D02*
X42863Y304292D01*
X167831Y304292D02*
X185738Y304292D01*
X220663Y254508D02*
X238570Y254508D01*
X345631Y254508D02*
X363538Y254508D01*
X238570Y304292D02*
X220663Y304292D01*
X345631Y304292D02*
X363538Y304292D01*
X398463Y254508D02*
X416370Y254508D01*
X523431Y254508D02*
X541338Y254508D01*
X416370Y304292D02*
X398463Y304292D01*
X523431Y304292D02*
X541338Y304292D01*
X576263Y254508D02*
X594170Y254508D01*
X701231Y254508D02*
X719138Y254508D01*
X594170Y304292D02*
X576263Y304292D01*
X701231Y304292D02*
X719138Y304292D01*
X754063Y254508D02*
X771970Y254508D01*
X879031Y254508D02*
X896938Y254508D01*
X771970Y304292D02*
X754063Y304292D01*
X879031Y304292D02*
X896938Y304292D01*
X60770Y102108D02*
X42863Y102108D01*
X167831Y102108D02*
X185738Y102108D01*
X60770Y151892D02*
X42863Y151892D01*
X167831Y151892D02*
X185738Y151892D01*
X220663Y102108D02*
X238570Y102108D01*
X345631Y102108D02*
X363538Y102108D01*
X238570Y151892D02*
X220663Y151892D01*
X345631Y151892D02*
X363538Y151892D01*
X398463Y102108D02*
X416370Y102108D01*
X523431Y102108D02*
X541338Y102108D01*
X416370Y151892D02*
X398463Y151892D01*
X523431Y151892D02*
X541338Y151892D01*
X576263Y102108D02*
X594170Y102108D01*
X701231Y102108D02*
X719138Y102108D01*
X594170Y151892D02*
X576263Y151892D01*
X701231Y151892D02*
X719138Y151892D01*
X754063Y102108D02*
X771970Y102108D01*
X879031Y102108D02*
X896938Y102108D01*
X771970Y151892D02*
X754063Y151892D01*
X879031Y151892D02*
X896938Y151892D01*
D12*
X1016800Y216675D03*
X1169200Y216675D03*
X1169200Y83325D03*
X1016800Y83325D03*
D13*
X1118400Y48400D03*
X1093000Y48400D03*
X1067600Y48400D03*
X991400Y150000D03*
X991400Y124600D03*
X991400Y175400D03*
D14*
X1115860Y236200D02*
X1133640Y236200D01*
X1070140Y236200D02*
X1052360Y236200D01*
X1052360Y281200D02*
X1070140Y281200D01*
X1115860Y281200D02*
X1133640Y281200D01*
D15*
X1068000Y495000D03*
X1093000Y495000D03*
X1118000Y495000D03*
X1068000Y640000D03*
X1118000Y640000D03*
D16*
X1144000Y580500D02*
X1144000Y559500D01*
X1162000Y559500D02*
X1162000Y580500D01*
X1161997Y580719D01*
X1161989Y580938D01*
X1161976Y581157D01*
X1161957Y581375D01*
X1161933Y581593D01*
X1161904Y581810D01*
X1161870Y582027D01*
X1161830Y582242D01*
X1161785Y582457D01*
X1161734Y582670D01*
X1161679Y582882D01*
X1161618Y583093D01*
X1161553Y583302D01*
X1161482Y583509D01*
X1161406Y583715D01*
X1161325Y583919D01*
X1161240Y584121D01*
X1161149Y584320D01*
X1161054Y584517D01*
X1160953Y584712D01*
X1160848Y584905D01*
X1160739Y585095D01*
X1160625Y585282D01*
X1160506Y585466D01*
X1160383Y585647D01*
X1160255Y585825D01*
X1160123Y586001D01*
X1159987Y586172D01*
X1159847Y586341D01*
X1159703Y586506D01*
X1159555Y586667D01*
X1159403Y586825D01*
X1159247Y586979D01*
X1159087Y587129D01*
X1158924Y587276D01*
X1158757Y587418D01*
X1158587Y587556D01*
X1158413Y587690D01*
X1158237Y587820D01*
X1158057Y587945D01*
X1157874Y588066D01*
X1157688Y588182D01*
X1157500Y588294D01*
X1157309Y588401D01*
X1157115Y588504D01*
X1156919Y588602D01*
X1156721Y588695D01*
X1156520Y588783D01*
X1156317Y588866D01*
X1156112Y588945D01*
X1155906Y589018D01*
X1155698Y589086D01*
X1155488Y589149D01*
X1155276Y589207D01*
X1155064Y589260D01*
X1154850Y589308D01*
X1154635Y589350D01*
X1154419Y589387D01*
X1154202Y589419D01*
X1153984Y589446D01*
X1153766Y589467D01*
X1153548Y589483D01*
X1153329Y589494D01*
X1153110Y589499D01*
X1152890Y589499D01*
X1152671Y589494D01*
X1152452Y589483D01*
X1152234Y589467D01*
X1152016Y589446D01*
X1151798Y589419D01*
X1151581Y589387D01*
X1151365Y589350D01*
X1151150Y589308D01*
X1150936Y589260D01*
X1150724Y589207D01*
X1150512Y589149D01*
X1150302Y589086D01*
X1150094Y589018D01*
X1149888Y588945D01*
X1149683Y588866D01*
X1149480Y588783D01*
X1149279Y588695D01*
X1149081Y588602D01*
X1148885Y588504D01*
X1148691Y588401D01*
X1148500Y588294D01*
X1148312Y588182D01*
X1148126Y588066D01*
X1147943Y587945D01*
X1147763Y587820D01*
X1147587Y587690D01*
X1147413Y587556D01*
X1147243Y587418D01*
X1147076Y587276D01*
X1146913Y587129D01*
X1146753Y586979D01*
X1146597Y586825D01*
X1146445Y586667D01*
X1146297Y586506D01*
X1146153Y586341D01*
X1146013Y586172D01*
X1145877Y586001D01*
X1145745Y585825D01*
X1145617Y585647D01*
X1145494Y585466D01*
X1145375Y585282D01*
X1145261Y585095D01*
X1145152Y584905D01*
X1145047Y584712D01*
X1144946Y584517D01*
X1144851Y584320D01*
X1144760Y584121D01*
X1144675Y583919D01*
X1144594Y583715D01*
X1144518Y583509D01*
X1144447Y583302D01*
X1144382Y583093D01*
X1144321Y582882D01*
X1144266Y582670D01*
X1144215Y582457D01*
X1144170Y582242D01*
X1144130Y582027D01*
X1144096Y581810D01*
X1144067Y581593D01*
X1144043Y581375D01*
X1144024Y581157D01*
X1144011Y580938D01*
X1144003Y580719D01*
X1144000Y580500D01*
X1144000Y559500D02*
X1144003Y559281D01*
X1144011Y559062D01*
X1144024Y558843D01*
X1144043Y558625D01*
X1144067Y558407D01*
X1144096Y558190D01*
X1144130Y557973D01*
X1144170Y557758D01*
X1144215Y557543D01*
X1144266Y557330D01*
X1144321Y557118D01*
X1144382Y556907D01*
X1144447Y556698D01*
X1144518Y556491D01*
X1144594Y556285D01*
X1144675Y556081D01*
X1144760Y555879D01*
X1144851Y555680D01*
X1144946Y555483D01*
X1145047Y555288D01*
X1145152Y555095D01*
X1145261Y554905D01*
X1145375Y554718D01*
X1145494Y554534D01*
X1145617Y554353D01*
X1145745Y554175D01*
X1145877Y553999D01*
X1146013Y553828D01*
X1146153Y553659D01*
X1146297Y553494D01*
X1146445Y553333D01*
X1146597Y553175D01*
X1146753Y553021D01*
X1146913Y552871D01*
X1147076Y552724D01*
X1147243Y552582D01*
X1147413Y552444D01*
X1147587Y552310D01*
X1147763Y552180D01*
X1147943Y552055D01*
X1148126Y551934D01*
X1148312Y551818D01*
X1148500Y551706D01*
X1148691Y551599D01*
X1148885Y551496D01*
X1149081Y551398D01*
X1149279Y551305D01*
X1149480Y551217D01*
X1149683Y551134D01*
X1149888Y551055D01*
X1150094Y550982D01*
X1150302Y550914D01*
X1150512Y550851D01*
X1150724Y550793D01*
X1150936Y550740D01*
X1151150Y550692D01*
X1151365Y550650D01*
X1151581Y550613D01*
X1151798Y550581D01*
X1152016Y550554D01*
X1152234Y550533D01*
X1152452Y550517D01*
X1152671Y550506D01*
X1152890Y550501D01*
X1153110Y550501D01*
X1153329Y550506D01*
X1153548Y550517D01*
X1153766Y550533D01*
X1153984Y550554D01*
X1154202Y550581D01*
X1154419Y550613D01*
X1154635Y550650D01*
X1154850Y550692D01*
X1155064Y550740D01*
X1155276Y550793D01*
X1155488Y550851D01*
X1155698Y550914D01*
X1155906Y550982D01*
X1156112Y551055D01*
X1156317Y551134D01*
X1156520Y551217D01*
X1156721Y551305D01*
X1156919Y551398D01*
X1157115Y551496D01*
X1157309Y551599D01*
X1157500Y551706D01*
X1157688Y551818D01*
X1157874Y551934D01*
X1158057Y552055D01*
X1158237Y552180D01*
X1158413Y552310D01*
X1158587Y552444D01*
X1158757Y552582D01*
X1158924Y552724D01*
X1159087Y552871D01*
X1159247Y553021D01*
X1159403Y553175D01*
X1159555Y553333D01*
X1159703Y553494D01*
X1159847Y553659D01*
X1159987Y553828D01*
X1160123Y553999D01*
X1160255Y554175D01*
X1160383Y554353D01*
X1160506Y554534D01*
X1160625Y554718D01*
X1160739Y554905D01*
X1160848Y555095D01*
X1160953Y555288D01*
X1161054Y555483D01*
X1161149Y555680D01*
X1161240Y555879D01*
X1161325Y556081D01*
X1161406Y556285D01*
X1161482Y556491D01*
X1161553Y556698D01*
X1161618Y556907D01*
X1161679Y557118D01*
X1161734Y557330D01*
X1161785Y557543D01*
X1161830Y557758D01*
X1161870Y557973D01*
X1161904Y558190D01*
X1161933Y558407D01*
X1161957Y558625D01*
X1161976Y558843D01*
X1161989Y559062D01*
X1161997Y559281D01*
X1162000Y559500D01*
X1042000Y559500D02*
X1042000Y580500D01*
X1024000Y580500D02*
X1024000Y559500D01*
X1024003Y559281D01*
X1024011Y559062D01*
X1024024Y558843D01*
X1024043Y558625D01*
X1024067Y558407D01*
X1024096Y558190D01*
X1024130Y557973D01*
X1024170Y557758D01*
X1024215Y557543D01*
X1024266Y557330D01*
X1024321Y557118D01*
X1024382Y556907D01*
X1024447Y556698D01*
X1024518Y556491D01*
X1024594Y556285D01*
X1024675Y556081D01*
X1024760Y555879D01*
X1024851Y555680D01*
X1024946Y555483D01*
X1025047Y555288D01*
X1025152Y555095D01*
X1025261Y554905D01*
X1025375Y554718D01*
X1025494Y554534D01*
X1025617Y554353D01*
X1025745Y554175D01*
X1025877Y553999D01*
X1026013Y553828D01*
X1026153Y553659D01*
X1026297Y553494D01*
X1026445Y553333D01*
X1026597Y553175D01*
X1026753Y553021D01*
X1026913Y552871D01*
X1027076Y552724D01*
X1027243Y552582D01*
X1027413Y552444D01*
X1027587Y552310D01*
X1027763Y552180D01*
X1027943Y552055D01*
X1028126Y551934D01*
X1028312Y551818D01*
X1028500Y551706D01*
X1028691Y551599D01*
X1028885Y551496D01*
X1029081Y551398D01*
X1029279Y551305D01*
X1029480Y551217D01*
X1029683Y551134D01*
X1029888Y551055D01*
X1030094Y550982D01*
X1030302Y550914D01*
X1030512Y550851D01*
X1030724Y550793D01*
X1030936Y550740D01*
X1031150Y550692D01*
X1031365Y550650D01*
X1031581Y550613D01*
X1031798Y550581D01*
X1032016Y550554D01*
X1032234Y550533D01*
X1032452Y550517D01*
X1032671Y550506D01*
X1032890Y550501D01*
X1033110Y550501D01*
X1033329Y550506D01*
X1033548Y550517D01*
X1033766Y550533D01*
X1033984Y550554D01*
X1034202Y550581D01*
X1034419Y550613D01*
X1034635Y550650D01*
X1034850Y550692D01*
X1035064Y550740D01*
X1035276Y550793D01*
X1035488Y550851D01*
X1035698Y550914D01*
X1035906Y550982D01*
X1036112Y551055D01*
X1036317Y551134D01*
X1036520Y551217D01*
X1036721Y551305D01*
X1036919Y551398D01*
X1037115Y551496D01*
X1037309Y551599D01*
X1037500Y551706D01*
X1037688Y551818D01*
X1037874Y551934D01*
X1038057Y552055D01*
X1038237Y552180D01*
X1038413Y552310D01*
X1038587Y552444D01*
X1038757Y552582D01*
X1038924Y552724D01*
X1039087Y552871D01*
X1039247Y553021D01*
X1039403Y553175D01*
X1039555Y553333D01*
X1039703Y553494D01*
X1039847Y553659D01*
X1039987Y553828D01*
X1040123Y553999D01*
X1040255Y554175D01*
X1040383Y554353D01*
X1040506Y554534D01*
X1040625Y554718D01*
X1040739Y554905D01*
X1040848Y555095D01*
X1040953Y555288D01*
X1041054Y555483D01*
X1041149Y555680D01*
X1041240Y555879D01*
X1041325Y556081D01*
X1041406Y556285D01*
X1041482Y556491D01*
X1041553Y556698D01*
X1041618Y556907D01*
X1041679Y557118D01*
X1041734Y557330D01*
X1041785Y557543D01*
X1041830Y557758D01*
X1041870Y557973D01*
X1041904Y558190D01*
X1041933Y558407D01*
X1041957Y558625D01*
X1041976Y558843D01*
X1041989Y559062D01*
X1041997Y559281D01*
X1042000Y559500D01*
X1042000Y580500D02*
X1041997Y580719D01*
X1041989Y580938D01*
X1041976Y581157D01*
X1041957Y581375D01*
X1041933Y581593D01*
X1041904Y581810D01*
X1041870Y582027D01*
X1041830Y582242D01*
X1041785Y582457D01*
X1041734Y582670D01*
X1041679Y582882D01*
X1041618Y583093D01*
X1041553Y583302D01*
X1041482Y583509D01*
X1041406Y583715D01*
X1041325Y583919D01*
X1041240Y584121D01*
X1041149Y584320D01*
X1041054Y584517D01*
X1040953Y584712D01*
X1040848Y584905D01*
X1040739Y585095D01*
X1040625Y585282D01*
X1040506Y585466D01*
X1040383Y585647D01*
X1040255Y585825D01*
X1040123Y586001D01*
X1039987Y586172D01*
X1039847Y586341D01*
X1039703Y586506D01*
X1039555Y586667D01*
X1039403Y586825D01*
X1039247Y586979D01*
X1039087Y587129D01*
X1038924Y587276D01*
X1038757Y587418D01*
X1038587Y587556D01*
X1038413Y587690D01*
X1038237Y587820D01*
X1038057Y587945D01*
X1037874Y588066D01*
X1037688Y588182D01*
X1037500Y588294D01*
X1037309Y588401D01*
X1037115Y588504D01*
X1036919Y588602D01*
X1036721Y588695D01*
X1036520Y588783D01*
X1036317Y588866D01*
X1036112Y588945D01*
X1035906Y589018D01*
X1035698Y589086D01*
X1035488Y589149D01*
X1035276Y589207D01*
X1035064Y589260D01*
X1034850Y589308D01*
X1034635Y589350D01*
X1034419Y589387D01*
X1034202Y589419D01*
X1033984Y589446D01*
X1033766Y589467D01*
X1033548Y589483D01*
X1033329Y589494D01*
X1033110Y589499D01*
X1032890Y589499D01*
X1032671Y589494D01*
X1032452Y589483D01*
X1032234Y589467D01*
X1032016Y589446D01*
X1031798Y589419D01*
X1031581Y589387D01*
X1031365Y589350D01*
X1031150Y589308D01*
X1030936Y589260D01*
X1030724Y589207D01*
X1030512Y589149D01*
X1030302Y589086D01*
X1030094Y589018D01*
X1029888Y588945D01*
X1029683Y588866D01*
X1029480Y588783D01*
X1029279Y588695D01*
X1029081Y588602D01*
X1028885Y588504D01*
X1028691Y588401D01*
X1028500Y588294D01*
X1028312Y588182D01*
X1028126Y588066D01*
X1027943Y587945D01*
X1027763Y587820D01*
X1027587Y587690D01*
X1027413Y587556D01*
X1027243Y587418D01*
X1027076Y587276D01*
X1026913Y587129D01*
X1026753Y586979D01*
X1026597Y586825D01*
X1026445Y586667D01*
X1026297Y586506D01*
X1026153Y586341D01*
X1026013Y586172D01*
X1025877Y586001D01*
X1025745Y585825D01*
X1025617Y585647D01*
X1025494Y585466D01*
X1025375Y585282D01*
X1025261Y585095D01*
X1025152Y584905D01*
X1025047Y584712D01*
X1024946Y584517D01*
X1024851Y584320D01*
X1024760Y584121D01*
X1024675Y583919D01*
X1024594Y583715D01*
X1024518Y583509D01*
X1024447Y583302D01*
X1024382Y583093D01*
X1024321Y582882D01*
X1024266Y582670D01*
X1024215Y582457D01*
X1024170Y582242D01*
X1024130Y582027D01*
X1024096Y581810D01*
X1024067Y581593D01*
X1024043Y581375D01*
X1024024Y581157D01*
X1024011Y580938D01*
X1024003Y580719D01*
X1024000Y580500D01*
D17*
X1131100Y462000D03*
X1054900Y462000D03*
D18*
X1054900Y670000D03*
X1131100Y670000D03*
X1054900Y436000D03*
X1131100Y436000D03*
D17*
X1131100Y310000D03*
X1054900Y310000D03*
D10*
X130810Y666750D02*
X130810Y681990D01*
X156210Y681990D02*
X156210Y666750D01*
X181610Y666750D02*
X181610Y681990D01*
X207010Y681990D02*
X207010Y666750D01*
X670560Y666750D02*
X670560Y681990D01*
X695960Y681990D02*
X695960Y666750D01*
X721360Y666750D02*
X721360Y681990D01*
X746760Y681990D02*
X746760Y666750D01*
D17*
X325450Y681304D03*
X249250Y681304D03*
X362255Y659282D03*
X286055Y659282D03*
D18*
X791108Y683209D03*
X867308Y683209D03*
D19*
X923239Y546125D03*
X923239Y622325D03*
D10*
X506730Y666750D02*
X506730Y681990D01*
X532130Y681990D02*
X532130Y666750D01*
X557530Y666750D02*
X557530Y681990D01*
D20*
X763016Y609092D02*
X763524Y609600D01*
X800100Y609600D01*
X889000Y609600D01*
X887984Y456692D02*
X800100Y456692D01*
X763016Y456692D01*
X763016Y304292D02*
X800100Y304292D01*
X887984Y304292D01*
X763524Y152400D02*
X763016Y151892D01*
X763524Y152400D02*
X800100Y152400D01*
X889000Y152400D01*
X800100Y152400D02*
X800100Y304292D01*
X800100Y456692D01*
X800100Y609600D01*
D21*
X306578Y520243D02*
X294081Y507746D01*
X306578Y520243D02*
X306578Y613918D01*
X319481Y626821D01*
X363093Y626821D01*
X389306Y653034D01*
X483489Y653034D01*
X504063Y632460D01*
X608838Y632460D02*
X638937Y602361D01*
X665607Y602361D01*
X690753Y627507D01*
X745617Y627507D01*
X608838Y632460D02*
X504063Y632460D01*
X745617Y627507D02*
X763524Y609600D01*
D22*
X710184Y456692D02*
X675894Y456692D01*
X622300Y456692D01*
X585216Y456692D01*
D20*
X585724Y304800D02*
X585216Y304292D01*
D22*
X585724Y304800D02*
X622300Y304800D01*
X711200Y304800D01*
X622300Y151892D02*
X585216Y151892D01*
X622300Y151892D02*
X710184Y151892D01*
X622300Y304800D02*
X622300Y456692D01*
X622300Y304800D02*
X622300Y151892D01*
X675894Y456692D02*
X676148Y456946D01*
D21*
X381000Y593852D02*
X381000Y628142D01*
X397256Y644398D01*
X319481Y570179D02*
X319481Y507746D01*
X319481Y570179D02*
X333756Y584454D01*
X371602Y584454D02*
X381000Y593852D01*
X371602Y584454D02*
X333756Y584454D01*
X397256Y644398D02*
X479933Y644398D01*
X569849Y624459D02*
X585216Y609092D01*
X499872Y624459D02*
X479933Y644398D01*
X499872Y624459D02*
X569849Y624459D01*
D22*
X677545Y576453D02*
X710184Y609092D01*
X677545Y576453D02*
X676275Y576453D01*
X676148Y576326D01*
X676148Y456946D01*
X444500Y151892D02*
X407416Y151892D01*
X444500Y151892D02*
X532384Y151892D01*
X444500Y304292D02*
X407416Y304292D01*
X444500Y304292D02*
X532384Y304292D01*
X444500Y456692D02*
X407416Y456692D01*
X444500Y456692D02*
X532384Y456692D01*
X444500Y609092D02*
X407416Y609092D01*
X444500Y609092D02*
X532384Y609092D01*
X444500Y609092D02*
X444500Y535686D01*
X444500Y456692D01*
X444500Y304292D01*
X444500Y151892D01*
D21*
X344881Y507746D02*
X344881Y523189D01*
X357378Y535686D02*
X444500Y535686D01*
X357378Y535686D02*
X344881Y523189D01*
D23*
X867308Y672770D02*
X867308Y683209D01*
X867308Y672770D02*
X843610Y649072D01*
X741959Y649072D01*
X733349Y657682D01*
D24*
X733349Y657682D03*
X737616Y431038D03*
D22*
X737616Y401574D01*
X760476Y378714D02*
X785622Y378714D01*
D24*
X785622Y378714D03*
X810260Y378714D03*
D22*
X810260Y360934D01*
X824484Y346710D02*
X901954Y346710D01*
D24*
X901954Y346710D03*
D22*
X760476Y378714D02*
X737616Y401574D01*
X810260Y360934D02*
X824484Y346710D01*
D24*
X495917Y388833D03*
X495993Y442841D03*
D22*
X495993Y388910D01*
X495917Y388833D01*
D24*
X838200Y365252D03*
D22*
X852678Y379730D01*
X852678Y431038D01*
X851916Y431038D01*
D24*
X851916Y431038D03*
D21*
X1068000Y656900D02*
X1054900Y670000D01*
X1068000Y656900D02*
X1068000Y640000D01*
D24*
X559054Y366014D03*
D21*
X485597Y482600D02*
X460451Y507746D01*
X559054Y466090D02*
X559054Y366014D01*
X542544Y482600D02*
X485597Y482600D01*
X542544Y482600D02*
X559054Y466090D01*
X1054900Y462000D02*
X1054900Y481900D01*
X1068000Y495000D01*
X25908Y549402D02*
X25908Y80264D01*
X35814Y559308D02*
X51816Y559308D01*
X35814Y559308D02*
X25908Y549402D01*
X502920Y25146D02*
X512521Y25146D01*
X54102Y52070D02*
X25908Y80264D01*
X475996Y52070D02*
X502920Y25146D01*
X475996Y52070D02*
X54102Y52070D01*
D20*
X176784Y559308D02*
X229616Y559308D01*
X710184Y559308D02*
X766724Y559308D01*
X768096Y557936D01*
D22*
X585216Y559308D02*
X532384Y559308D01*
D21*
X537921Y62789D02*
X537921Y25146D01*
X528066Y72644D02*
X511302Y72644D01*
X483616Y100330D01*
X483616Y109728D01*
X466598Y126746D01*
X390906Y126746D02*
X380746Y136906D01*
X380746Y380238D01*
X528066Y72644D02*
X537921Y62789D01*
X466598Y126746D02*
X390906Y126746D01*
X380746Y380238D02*
X407416Y406908D01*
X563321Y71933D02*
X563321Y25146D01*
X563321Y71933D02*
X557530Y77724D01*
X557530Y240284D01*
X571754Y254508D02*
X585216Y254508D01*
X571754Y254508D02*
X557530Y240284D01*
X585216Y102108D02*
X588721Y98603D01*
X588721Y25146D01*
X614121Y25146D02*
X614121Y81483D01*
X658876Y126238D02*
X715772Y126238D01*
X733552Y144018D01*
X658876Y126238D02*
X614121Y81483D01*
X733552Y144018D02*
X733552Y324104D01*
X741680Y332232D01*
X780034Y332232D01*
D24*
X780034Y332232D03*
X1012952Y330200D03*
D21*
X993394Y204470D02*
X1012952Y184912D01*
X998868Y150000D02*
X991400Y150000D01*
X993394Y204470D02*
X993394Y310642D01*
X1012952Y330200D01*
X1012952Y184912D02*
X1012952Y164084D01*
X998868Y150000D01*
X671830Y57455D02*
X639521Y25146D01*
X671830Y57455D02*
X671830Y104140D01*
X685038Y117348D01*
X726440Y117348D01*
X740156Y131064D01*
X740156Y271272D01*
X748538Y279654D01*
X778002Y279654D01*
X778002Y279400D01*
D24*
X778002Y279400D03*
D21*
X976376Y114046D02*
X984250Y106172D01*
X1093000Y73368D02*
X1093000Y48400D01*
X976376Y254000D02*
X976376Y264922D01*
X976376Y254000D02*
X976376Y114046D01*
X984250Y106172D02*
X1060196Y106172D01*
X1093000Y73368D01*
X976376Y264922D02*
X976376Y304800D01*
D24*
X976376Y304800D03*
D20*
X229616Y609092D02*
X228092Y609092D01*
D22*
X229616Y456692D02*
X266700Y456692D01*
X354584Y456692D01*
D20*
X229616Y456692D02*
X228092Y456692D01*
D22*
X229616Y151892D02*
X266700Y151892D01*
X354584Y151892D01*
D20*
X229616Y304292D02*
X229108Y304800D01*
D22*
X229616Y304292D02*
X266700Y304292D01*
X354584Y304292D01*
X266700Y304292D02*
X266700Y456692D01*
X266700Y304292D02*
X266700Y151892D01*
X370281Y472389D02*
X370281Y507746D01*
X370281Y472389D02*
X354584Y456692D01*
D21*
X204216Y583692D02*
X229616Y609092D01*
X222758Y480822D02*
X229616Y473964D01*
X229616Y456692D01*
X204216Y583692D02*
X157734Y583692D01*
X167132Y480822D02*
X222758Y480822D01*
X138730Y533794D02*
X125428Y520492D01*
X125428Y495346D01*
X140089Y480685D01*
X166995Y480685D01*
X167132Y480822D01*
X138730Y564688D02*
X157734Y583692D01*
X138730Y564688D02*
X138730Y533794D01*
D22*
X176784Y609092D02*
X88900Y609092D01*
X51816Y609092D01*
D20*
X51308Y456692D02*
X51816Y456692D01*
X52324Y457200D01*
D22*
X88900Y457200D01*
X177800Y457200D01*
D20*
X52324Y152400D02*
X51816Y151892D01*
D22*
X52324Y152400D02*
X88900Y152400D01*
X177800Y152400D01*
X88900Y304292D02*
X51816Y304292D01*
X88900Y304292D02*
X176784Y304292D01*
X88900Y457200D02*
X88900Y609092D01*
X88900Y457200D02*
X88900Y304292D01*
X88900Y152400D01*
D24*
X647609Y431960D03*
D21*
X651096Y431960D01*
X675640Y407416D02*
X675640Y382524D01*
X675640Y407416D02*
X651096Y431960D01*
D24*
X760496Y347127D03*
D21*
X1054900Y436000D02*
X1083954Y436000D01*
X1118108Y470154D01*
X1118108Y494892D01*
X1118000Y495000D01*
X760496Y347127D02*
X711037Y347127D01*
X675640Y382524D01*
D24*
X219456Y653415D03*
D21*
X184328Y653415D01*
X181051Y656692D01*
X181051Y673811D01*
X181610Y674370D01*
D22*
X268681Y540258D02*
X268681Y507746D01*
X259690Y549250D02*
X259690Y627278D01*
X247421Y639547D01*
X259690Y549250D02*
X268681Y540258D01*
X247421Y639547D02*
X171221Y639547D01*
X156210Y654558D02*
X156210Y674370D01*
X156210Y654558D02*
X171221Y639547D01*
X695960Y659384D02*
X695960Y674370D01*
X695960Y659384D02*
X687705Y651129D01*
D24*
X923163Y471907D03*
D23*
X923163Y470535D01*
D20*
X923163Y227609D01*
D24*
X923163Y227609D03*
D22*
X254051Y646176D02*
X247421Y639547D01*
X254051Y646176D02*
X254051Y657377D01*
X273787Y677113D01*
X302285Y677113D02*
X318897Y660502D01*
X334747Y660502D01*
X302285Y677113D02*
X273787Y677113D01*
X334747Y660502D02*
X355092Y680847D01*
X470154Y680847D01*
X509778Y641223D01*
X626745Y641223D02*
X636651Y651129D01*
X687705Y651129D01*
X532638Y641223D02*
X509778Y641223D01*
X532638Y641223D02*
X626745Y641223D01*
X532130Y641731D02*
X532130Y674370D01*
X532130Y641731D02*
X532638Y641223D01*
X1093000Y557568D02*
X1093000Y495000D01*
X1118000Y582568D02*
X1118000Y640000D01*
X1118000Y582568D02*
X1093000Y557568D01*
D24*
X1012952Y381000D03*
D22*
X991400Y124600D02*
X1059942Y124600D01*
X1085710Y124600D01*
X1118616Y91694D01*
X1118616Y48616D01*
X1118400Y48400D01*
X1059942Y124600D02*
X1061250Y125908D01*
X1091184Y302768D02*
X1012952Y381000D01*
X1091184Y302768D02*
X1091184Y251460D01*
X1061250Y236200D02*
X1061250Y125908D01*
X1061250Y236200D02*
X1075924Y236200D01*
X1091184Y251460D01*
D24*
X795274Y87630D03*
D21*
X849376Y274828D02*
X849884Y274828D01*
D24*
X849884Y274828D03*
D22*
X834136Y126492D02*
X795274Y87630D01*
X834136Y126492D02*
X906018Y126492D01*
X913892Y134366D01*
X913892Y206502D01*
X899668Y220726D01*
X875792Y220726D01*
X849376Y247142D01*
X849376Y274828D01*
D23*
X721360Y674370D02*
X721360Y691642D01*
X726719Y697001D01*
X777316Y697001D01*
X791108Y683209D01*
M02*
