G04 EAGLE Gerber RS-274X export*
G75*
%MOMM*%
%FSLAX34Y34*%
%LPD*%
%INTop Copper*%
%IPPOS*%
%AMOC8*
5,1,8,0,0,1.08239X$1,22.5*%
G01*
%ADD10R,0.076200X0.038100*%
%ADD11R,0.266700X0.038100*%
%ADD12R,0.419100X0.038100*%
%ADD13R,0.609600X0.038100*%
%ADD14R,0.838200X0.038100*%
%ADD15R,1.028700X0.038100*%
%ADD16R,1.219200X0.038100*%
%ADD17R,1.447800X0.038100*%
%ADD18R,1.600200X0.038100*%
%ADD19R,1.828800X0.038100*%
%ADD20R,2.019300X0.038100*%
%ADD21R,2.247900X0.038100*%
%ADD22R,2.438400X0.038100*%
%ADD23R,2.514600X0.038100*%
%ADD24R,2.552700X0.038100*%
%ADD25R,2.590800X0.038100*%
%ADD26R,2.667000X0.038100*%
%ADD27R,2.628900X0.038100*%
%ADD28R,2.705100X0.038100*%
%ADD29R,2.743200X0.038100*%
%ADD30R,2.781300X0.038100*%
%ADD31R,2.819400X0.038100*%
%ADD32R,2.857500X0.038100*%
%ADD33R,2.895600X0.038100*%
%ADD34R,2.933700X0.038100*%
%ADD35R,0.190500X0.038100*%
%ADD36R,3.009900X0.038100*%
%ADD37R,0.723900X0.038100*%
%ADD38R,3.162300X0.038100*%
%ADD39R,1.181100X0.038100*%
%ADD40R,3.200400X0.038100*%
%ADD41R,1.066800X0.038100*%
%ADD42R,3.238500X0.038100*%
%ADD43R,3.390900X0.038100*%
%ADD44R,0.381000X0.038100*%
%ADD45R,3.505200X0.038100*%
%ADD46R,3.733800X0.038100*%
%ADD47R,1.143000X0.038100*%
%ADD48R,4.000500X0.038100*%
%ADD49R,1.714500X0.038100*%
%ADD50R,4.419600X0.038100*%
%ADD51R,2.095500X0.038100*%
%ADD52R,8.610600X0.038100*%
%ADD53R,7.696200X0.038100*%
%ADD54R,6.515100X0.038100*%
%ADD55R,5.219700X0.038100*%
%ADD56C,1.524000*%
%ADD57C,1.790700*%
%ADD58C,2.540000*%
%ADD59C,1.778000*%
%ADD60C,1.778000*%
%ADD61C,1.930400*%
%ADD62C,1.016000*%
%ADD63R,1.168400X1.600200*%
%ADD64P,1.429621X8X202.500000*%
%ADD65P,1.429621X8X22.500000*%
%ADD66P,1.429621X8X112.500000*%
%ADD67R,1.600200X1.168400*%
%ADD68C,0.609600*%
%ADD69C,0.508000*%
%ADD70C,0.889000*%
%ADD71C,0.304800*%
%ADD72C,1.143000*%
%ADD73C,0.406400*%
%ADD74C,0.254000*%


D10*
X687245Y4915D03*
D11*
X688198Y5296D03*
D12*
X689341Y5677D03*
D13*
X690293Y6058D03*
D14*
X691436Y6439D03*
D15*
X692389Y6820D03*
D16*
X693341Y7201D03*
D17*
X694484Y7582D03*
D18*
X695627Y7963D03*
D19*
X696770Y8344D03*
D20*
X697723Y8725D03*
D21*
X698866Y9106D03*
D22*
X700199Y9487D03*
D23*
X702104Y9868D03*
D24*
X704200Y10249D03*
X706105Y10630D03*
D25*
X708581Y11011D03*
D26*
X710867Y11392D03*
D27*
X713344Y11773D03*
D28*
X715630Y12154D03*
X717916Y12535D03*
D29*
X720773Y12916D03*
D30*
X723250Y13297D03*
D31*
X725726Y13678D03*
D32*
X728584Y14059D03*
D33*
X731441Y14440D03*
D34*
X734299Y14821D03*
X737347Y15202D03*
D35*
X870920Y15118D03*
D36*
X740395Y15583D03*
D37*
X868634Y15499D03*
D38*
X743824Y15964D03*
D39*
X865586Y15880D03*
D40*
X747443Y16345D03*
D41*
X863110Y16261D03*
D42*
X751063Y16726D03*
D37*
X861395Y16642D03*
D43*
X754873Y17107D03*
D35*
X848599Y17107D03*
D44*
X860062Y17023D03*
D45*
X758873Y17488D03*
D13*
X846503Y17488D03*
D10*
X858538Y17404D03*
D46*
X764207Y17869D03*
D47*
X843836Y17869D03*
D48*
X769351Y18250D03*
D49*
X841360Y18250D03*
D50*
X775256Y18631D03*
D51*
X836788Y18631D03*
D52*
X800402Y19012D03*
D53*
X800783Y19393D03*
D54*
X800974Y19774D03*
D55*
X800974Y20155D03*
D46*
X800783Y20536D03*
D10*
X849554Y17892D03*
D56*
X192481Y500126D02*
X192481Y515366D01*
X217881Y515366D02*
X217881Y500126D01*
X243281Y500126D02*
X243281Y515366D01*
X268681Y515366D02*
X268681Y500126D01*
X294081Y500126D02*
X294081Y515366D01*
X319481Y515366D02*
X319481Y500126D01*
X344881Y500126D02*
X344881Y515366D01*
X370281Y515366D02*
X370281Y500126D01*
X395681Y500126D02*
X395681Y515366D01*
X421081Y515366D02*
X421081Y500126D01*
X460451Y500126D02*
X460451Y515366D01*
X485851Y515366D02*
X485851Y500126D01*
X511251Y500126D02*
X511251Y515366D01*
X536651Y515366D02*
X536651Y500126D01*
X562051Y500126D02*
X562051Y515366D01*
X587451Y515366D02*
X587451Y500126D01*
X612851Y500126D02*
X612851Y515366D01*
X638251Y515366D02*
X638251Y500126D01*
X512521Y32766D02*
X512521Y17526D01*
X537921Y17526D02*
X537921Y32766D01*
X563321Y32766D02*
X563321Y17526D01*
X588721Y17526D02*
X588721Y32766D01*
X614121Y32766D02*
X614121Y17526D01*
X639521Y17526D02*
X639521Y32766D01*
X282651Y32766D02*
X282651Y17526D01*
X308051Y17526D02*
X308051Y32766D01*
X333451Y32766D02*
X333451Y17526D01*
X358851Y17526D02*
X358851Y32766D01*
X384251Y32766D02*
X384251Y17526D01*
X409651Y17526D02*
X409651Y32766D01*
X435051Y32766D02*
X435051Y17526D01*
X460451Y17526D02*
X460451Y32766D01*
D57*
X60770Y559308D02*
X42863Y559308D01*
X167831Y559308D02*
X185738Y559308D01*
X60770Y609092D02*
X42863Y609092D01*
X167831Y609092D02*
X185738Y609092D01*
X220663Y559308D02*
X238570Y559308D01*
X345631Y559308D02*
X363538Y559308D01*
X238570Y609092D02*
X220663Y609092D01*
X345631Y609092D02*
X363538Y609092D01*
X398463Y559308D02*
X416370Y559308D01*
X523431Y559308D02*
X541338Y559308D01*
X416370Y609092D02*
X398463Y609092D01*
X523431Y609092D02*
X541338Y609092D01*
X576263Y559308D02*
X594170Y559308D01*
X701231Y559308D02*
X719138Y559308D01*
X594170Y609092D02*
X576263Y609092D01*
X701231Y609092D02*
X719138Y609092D01*
X754063Y559308D02*
X771970Y559308D01*
X879031Y559308D02*
X896938Y559308D01*
X771970Y609092D02*
X754063Y609092D01*
X879031Y609092D02*
X896938Y609092D01*
X60770Y406908D02*
X42863Y406908D01*
X167831Y406908D02*
X185738Y406908D01*
X60770Y456692D02*
X42863Y456692D01*
X167831Y456692D02*
X185738Y456692D01*
X220663Y406908D02*
X238570Y406908D01*
X345631Y406908D02*
X363538Y406908D01*
X238570Y456692D02*
X220663Y456692D01*
X345631Y456692D02*
X363538Y456692D01*
X398463Y406908D02*
X416370Y406908D01*
X523431Y406908D02*
X541338Y406908D01*
X416370Y456692D02*
X398463Y456692D01*
X523431Y456692D02*
X541338Y456692D01*
X576263Y406908D02*
X594170Y406908D01*
X701231Y406908D02*
X719138Y406908D01*
X594170Y456692D02*
X576263Y456692D01*
X701231Y456692D02*
X719138Y456692D01*
X754063Y406908D02*
X771970Y406908D01*
X879031Y406908D02*
X896938Y406908D01*
X771970Y456692D02*
X754063Y456692D01*
X879031Y456692D02*
X896938Y456692D01*
X60770Y254508D02*
X42863Y254508D01*
X167831Y254508D02*
X185738Y254508D01*
X60770Y304292D02*
X42863Y304292D01*
X167831Y304292D02*
X185738Y304292D01*
X220663Y254508D02*
X238570Y254508D01*
X345631Y254508D02*
X363538Y254508D01*
X238570Y304292D02*
X220663Y304292D01*
X345631Y304292D02*
X363538Y304292D01*
X398463Y254508D02*
X416370Y254508D01*
X523431Y254508D02*
X541338Y254508D01*
X416370Y304292D02*
X398463Y304292D01*
X523431Y304292D02*
X541338Y304292D01*
X576263Y254508D02*
X594170Y254508D01*
X701231Y254508D02*
X719138Y254508D01*
X594170Y304292D02*
X576263Y304292D01*
X701231Y304292D02*
X719138Y304292D01*
X754063Y254508D02*
X771970Y254508D01*
X879031Y254508D02*
X896938Y254508D01*
X771970Y304292D02*
X754063Y304292D01*
X879031Y304292D02*
X896938Y304292D01*
X60770Y102108D02*
X42863Y102108D01*
X167831Y102108D02*
X185738Y102108D01*
X60770Y151892D02*
X42863Y151892D01*
X167831Y151892D02*
X185738Y151892D01*
X220663Y102108D02*
X238570Y102108D01*
X345631Y102108D02*
X363538Y102108D01*
X238570Y151892D02*
X220663Y151892D01*
X345631Y151892D02*
X363538Y151892D01*
X398463Y102108D02*
X416370Y102108D01*
X523431Y102108D02*
X541338Y102108D01*
X416370Y151892D02*
X398463Y151892D01*
X523431Y151892D02*
X541338Y151892D01*
X576263Y102108D02*
X594170Y102108D01*
X701231Y102108D02*
X719138Y102108D01*
X594170Y151892D02*
X576263Y151892D01*
X701231Y151892D02*
X719138Y151892D01*
X754063Y102108D02*
X771970Y102108D01*
X879031Y102108D02*
X896938Y102108D01*
X771970Y151892D02*
X754063Y151892D01*
X879031Y151892D02*
X896938Y151892D01*
D58*
X1016800Y216675D03*
X1169200Y216675D03*
X1169200Y83325D03*
X1016800Y83325D03*
D59*
X1118400Y48400D03*
X1093000Y48400D03*
X1067600Y48400D03*
X991400Y150000D03*
X991400Y124600D03*
X991400Y175400D03*
D60*
X1115860Y236200D02*
X1133640Y236200D01*
X1070140Y236200D02*
X1052360Y236200D01*
X1052360Y281200D02*
X1070140Y281200D01*
X1115860Y281200D02*
X1133640Y281200D01*
D61*
X1068000Y495000D03*
X1093000Y495000D03*
X1118000Y495000D03*
X1068000Y640000D03*
X1118000Y640000D03*
D62*
X1144000Y580500D02*
X1144000Y559500D01*
X1162000Y559500D02*
X1162000Y580500D01*
X1161997Y580719D01*
X1161989Y580938D01*
X1161976Y581157D01*
X1161957Y581375D01*
X1161933Y581593D01*
X1161904Y581810D01*
X1161870Y582027D01*
X1161830Y582242D01*
X1161785Y582457D01*
X1161734Y582670D01*
X1161679Y582882D01*
X1161618Y583093D01*
X1161553Y583302D01*
X1161482Y583509D01*
X1161406Y583715D01*
X1161325Y583919D01*
X1161240Y584121D01*
X1161149Y584320D01*
X1161054Y584517D01*
X1160953Y584712D01*
X1160848Y584905D01*
X1160739Y585095D01*
X1160625Y585282D01*
X1160506Y585466D01*
X1160383Y585647D01*
X1160255Y585825D01*
X1160123Y586001D01*
X1159987Y586172D01*
X1159847Y586341D01*
X1159703Y586506D01*
X1159555Y586667D01*
X1159403Y586825D01*
X1159247Y586979D01*
X1159087Y587129D01*
X1158924Y587276D01*
X1158757Y587418D01*
X1158587Y587556D01*
X1158413Y587690D01*
X1158237Y587820D01*
X1158057Y587945D01*
X1157874Y588066D01*
X1157688Y588182D01*
X1157500Y588294D01*
X1157309Y588401D01*
X1157115Y588504D01*
X1156919Y588602D01*
X1156721Y588695D01*
X1156520Y588783D01*
X1156317Y588866D01*
X1156112Y588945D01*
X1155906Y589018D01*
X1155698Y589086D01*
X1155488Y589149D01*
X1155276Y589207D01*
X1155064Y589260D01*
X1154850Y589308D01*
X1154635Y589350D01*
X1154419Y589387D01*
X1154202Y589419D01*
X1153984Y589446D01*
X1153766Y589467D01*
X1153548Y589483D01*
X1153329Y589494D01*
X1153110Y589499D01*
X1152890Y589499D01*
X1152671Y589494D01*
X1152452Y589483D01*
X1152234Y589467D01*
X1152016Y589446D01*
X1151798Y589419D01*
X1151581Y589387D01*
X1151365Y589350D01*
X1151150Y589308D01*
X1150936Y589260D01*
X1150724Y589207D01*
X1150512Y589149D01*
X1150302Y589086D01*
X1150094Y589018D01*
X1149888Y588945D01*
X1149683Y588866D01*
X1149480Y588783D01*
X1149279Y588695D01*
X1149081Y588602D01*
X1148885Y588504D01*
X1148691Y588401D01*
X1148500Y588294D01*
X1148312Y588182D01*
X1148126Y588066D01*
X1147943Y587945D01*
X1147763Y587820D01*
X1147587Y587690D01*
X1147413Y587556D01*
X1147243Y587418D01*
X1147076Y587276D01*
X1146913Y587129D01*
X1146753Y586979D01*
X1146597Y586825D01*
X1146445Y586667D01*
X1146297Y586506D01*
X1146153Y586341D01*
X1146013Y586172D01*
X1145877Y586001D01*
X1145745Y585825D01*
X1145617Y585647D01*
X1145494Y585466D01*
X1145375Y585282D01*
X1145261Y585095D01*
X1145152Y584905D01*
X1145047Y584712D01*
X1144946Y584517D01*
X1144851Y584320D01*
X1144760Y584121D01*
X1144675Y583919D01*
X1144594Y583715D01*
X1144518Y583509D01*
X1144447Y583302D01*
X1144382Y583093D01*
X1144321Y582882D01*
X1144266Y582670D01*
X1144215Y582457D01*
X1144170Y582242D01*
X1144130Y582027D01*
X1144096Y581810D01*
X1144067Y581593D01*
X1144043Y581375D01*
X1144024Y581157D01*
X1144011Y580938D01*
X1144003Y580719D01*
X1144000Y580500D01*
X1144000Y559500D02*
X1144003Y559281D01*
X1144011Y559062D01*
X1144024Y558843D01*
X1144043Y558625D01*
X1144067Y558407D01*
X1144096Y558190D01*
X1144130Y557973D01*
X1144170Y557758D01*
X1144215Y557543D01*
X1144266Y557330D01*
X1144321Y557118D01*
X1144382Y556907D01*
X1144447Y556698D01*
X1144518Y556491D01*
X1144594Y556285D01*
X1144675Y556081D01*
X1144760Y555879D01*
X1144851Y555680D01*
X1144946Y555483D01*
X1145047Y555288D01*
X1145152Y555095D01*
X1145261Y554905D01*
X1145375Y554718D01*
X1145494Y554534D01*
X1145617Y554353D01*
X1145745Y554175D01*
X1145877Y553999D01*
X1146013Y553828D01*
X1146153Y553659D01*
X1146297Y553494D01*
X1146445Y553333D01*
X1146597Y553175D01*
X1146753Y553021D01*
X1146913Y552871D01*
X1147076Y552724D01*
X1147243Y552582D01*
X1147413Y552444D01*
X1147587Y552310D01*
X1147763Y552180D01*
X1147943Y552055D01*
X1148126Y551934D01*
X1148312Y551818D01*
X1148500Y551706D01*
X1148691Y551599D01*
X1148885Y551496D01*
X1149081Y551398D01*
X1149279Y551305D01*
X1149480Y551217D01*
X1149683Y551134D01*
X1149888Y551055D01*
X1150094Y550982D01*
X1150302Y550914D01*
X1150512Y550851D01*
X1150724Y550793D01*
X1150936Y550740D01*
X1151150Y550692D01*
X1151365Y550650D01*
X1151581Y550613D01*
X1151798Y550581D01*
X1152016Y550554D01*
X1152234Y550533D01*
X1152452Y550517D01*
X1152671Y550506D01*
X1152890Y550501D01*
X1153110Y550501D01*
X1153329Y550506D01*
X1153548Y550517D01*
X1153766Y550533D01*
X1153984Y550554D01*
X1154202Y550581D01*
X1154419Y550613D01*
X1154635Y550650D01*
X1154850Y550692D01*
X1155064Y550740D01*
X1155276Y550793D01*
X1155488Y550851D01*
X1155698Y550914D01*
X1155906Y550982D01*
X1156112Y551055D01*
X1156317Y551134D01*
X1156520Y551217D01*
X1156721Y551305D01*
X1156919Y551398D01*
X1157115Y551496D01*
X1157309Y551599D01*
X1157500Y551706D01*
X1157688Y551818D01*
X1157874Y551934D01*
X1158057Y552055D01*
X1158237Y552180D01*
X1158413Y552310D01*
X1158587Y552444D01*
X1158757Y552582D01*
X1158924Y552724D01*
X1159087Y552871D01*
X1159247Y553021D01*
X1159403Y553175D01*
X1159555Y553333D01*
X1159703Y553494D01*
X1159847Y553659D01*
X1159987Y553828D01*
X1160123Y553999D01*
X1160255Y554175D01*
X1160383Y554353D01*
X1160506Y554534D01*
X1160625Y554718D01*
X1160739Y554905D01*
X1160848Y555095D01*
X1160953Y555288D01*
X1161054Y555483D01*
X1161149Y555680D01*
X1161240Y555879D01*
X1161325Y556081D01*
X1161406Y556285D01*
X1161482Y556491D01*
X1161553Y556698D01*
X1161618Y556907D01*
X1161679Y557118D01*
X1161734Y557330D01*
X1161785Y557543D01*
X1161830Y557758D01*
X1161870Y557973D01*
X1161904Y558190D01*
X1161933Y558407D01*
X1161957Y558625D01*
X1161976Y558843D01*
X1161989Y559062D01*
X1161997Y559281D01*
X1162000Y559500D01*
X1042000Y559500D02*
X1042000Y580500D01*
X1024000Y580500D02*
X1024000Y559500D01*
X1024003Y559281D01*
X1024011Y559062D01*
X1024024Y558843D01*
X1024043Y558625D01*
X1024067Y558407D01*
X1024096Y558190D01*
X1024130Y557973D01*
X1024170Y557758D01*
X1024215Y557543D01*
X1024266Y557330D01*
X1024321Y557118D01*
X1024382Y556907D01*
X1024447Y556698D01*
X1024518Y556491D01*
X1024594Y556285D01*
X1024675Y556081D01*
X1024760Y555879D01*
X1024851Y555680D01*
X1024946Y555483D01*
X1025047Y555288D01*
X1025152Y555095D01*
X1025261Y554905D01*
X1025375Y554718D01*
X1025494Y554534D01*
X1025617Y554353D01*
X1025745Y554175D01*
X1025877Y553999D01*
X1026013Y553828D01*
X1026153Y553659D01*
X1026297Y553494D01*
X1026445Y553333D01*
X1026597Y553175D01*
X1026753Y553021D01*
X1026913Y552871D01*
X1027076Y552724D01*
X1027243Y552582D01*
X1027413Y552444D01*
X1027587Y552310D01*
X1027763Y552180D01*
X1027943Y552055D01*
X1028126Y551934D01*
X1028312Y551818D01*
X1028500Y551706D01*
X1028691Y551599D01*
X1028885Y551496D01*
X1029081Y551398D01*
X1029279Y551305D01*
X1029480Y551217D01*
X1029683Y551134D01*
X1029888Y551055D01*
X1030094Y550982D01*
X1030302Y550914D01*
X1030512Y550851D01*
X1030724Y550793D01*
X1030936Y550740D01*
X1031150Y550692D01*
X1031365Y550650D01*
X1031581Y550613D01*
X1031798Y550581D01*
X1032016Y550554D01*
X1032234Y550533D01*
X1032452Y550517D01*
X1032671Y550506D01*
X1032890Y550501D01*
X1033110Y550501D01*
X1033329Y550506D01*
X1033548Y550517D01*
X1033766Y550533D01*
X1033984Y550554D01*
X1034202Y550581D01*
X1034419Y550613D01*
X1034635Y550650D01*
X1034850Y550692D01*
X1035064Y550740D01*
X1035276Y550793D01*
X1035488Y550851D01*
X1035698Y550914D01*
X1035906Y550982D01*
X1036112Y551055D01*
X1036317Y551134D01*
X1036520Y551217D01*
X1036721Y551305D01*
X1036919Y551398D01*
X1037115Y551496D01*
X1037309Y551599D01*
X1037500Y551706D01*
X1037688Y551818D01*
X1037874Y551934D01*
X1038057Y552055D01*
X1038237Y552180D01*
X1038413Y552310D01*
X1038587Y552444D01*
X1038757Y552582D01*
X1038924Y552724D01*
X1039087Y552871D01*
X1039247Y553021D01*
X1039403Y553175D01*
X1039555Y553333D01*
X1039703Y553494D01*
X1039847Y553659D01*
X1039987Y553828D01*
X1040123Y553999D01*
X1040255Y554175D01*
X1040383Y554353D01*
X1040506Y554534D01*
X1040625Y554718D01*
X1040739Y554905D01*
X1040848Y555095D01*
X1040953Y555288D01*
X1041054Y555483D01*
X1041149Y555680D01*
X1041240Y555879D01*
X1041325Y556081D01*
X1041406Y556285D01*
X1041482Y556491D01*
X1041553Y556698D01*
X1041618Y556907D01*
X1041679Y557118D01*
X1041734Y557330D01*
X1041785Y557543D01*
X1041830Y557758D01*
X1041870Y557973D01*
X1041904Y558190D01*
X1041933Y558407D01*
X1041957Y558625D01*
X1041976Y558843D01*
X1041989Y559062D01*
X1041997Y559281D01*
X1042000Y559500D01*
X1042000Y580500D02*
X1041997Y580719D01*
X1041989Y580938D01*
X1041976Y581157D01*
X1041957Y581375D01*
X1041933Y581593D01*
X1041904Y581810D01*
X1041870Y582027D01*
X1041830Y582242D01*
X1041785Y582457D01*
X1041734Y582670D01*
X1041679Y582882D01*
X1041618Y583093D01*
X1041553Y583302D01*
X1041482Y583509D01*
X1041406Y583715D01*
X1041325Y583919D01*
X1041240Y584121D01*
X1041149Y584320D01*
X1041054Y584517D01*
X1040953Y584712D01*
X1040848Y584905D01*
X1040739Y585095D01*
X1040625Y585282D01*
X1040506Y585466D01*
X1040383Y585647D01*
X1040255Y585825D01*
X1040123Y586001D01*
X1039987Y586172D01*
X1039847Y586341D01*
X1039703Y586506D01*
X1039555Y586667D01*
X1039403Y586825D01*
X1039247Y586979D01*
X1039087Y587129D01*
X1038924Y587276D01*
X1038757Y587418D01*
X1038587Y587556D01*
X1038413Y587690D01*
X1038237Y587820D01*
X1038057Y587945D01*
X1037874Y588066D01*
X1037688Y588182D01*
X1037500Y588294D01*
X1037309Y588401D01*
X1037115Y588504D01*
X1036919Y588602D01*
X1036721Y588695D01*
X1036520Y588783D01*
X1036317Y588866D01*
X1036112Y588945D01*
X1035906Y589018D01*
X1035698Y589086D01*
X1035488Y589149D01*
X1035276Y589207D01*
X1035064Y589260D01*
X1034850Y589308D01*
X1034635Y589350D01*
X1034419Y589387D01*
X1034202Y589419D01*
X1033984Y589446D01*
X1033766Y589467D01*
X1033548Y589483D01*
X1033329Y589494D01*
X1033110Y589499D01*
X1032890Y589499D01*
X1032671Y589494D01*
X1032452Y589483D01*
X1032234Y589467D01*
X1032016Y589446D01*
X1031798Y589419D01*
X1031581Y589387D01*
X1031365Y589350D01*
X1031150Y589308D01*
X1030936Y589260D01*
X1030724Y589207D01*
X1030512Y589149D01*
X1030302Y589086D01*
X1030094Y589018D01*
X1029888Y588945D01*
X1029683Y588866D01*
X1029480Y588783D01*
X1029279Y588695D01*
X1029081Y588602D01*
X1028885Y588504D01*
X1028691Y588401D01*
X1028500Y588294D01*
X1028312Y588182D01*
X1028126Y588066D01*
X1027943Y587945D01*
X1027763Y587820D01*
X1027587Y587690D01*
X1027413Y587556D01*
X1027243Y587418D01*
X1027076Y587276D01*
X1026913Y587129D01*
X1026753Y586979D01*
X1026597Y586825D01*
X1026445Y586667D01*
X1026297Y586506D01*
X1026153Y586341D01*
X1026013Y586172D01*
X1025877Y586001D01*
X1025745Y585825D01*
X1025617Y585647D01*
X1025494Y585466D01*
X1025375Y585282D01*
X1025261Y585095D01*
X1025152Y584905D01*
X1025047Y584712D01*
X1024946Y584517D01*
X1024851Y584320D01*
X1024760Y584121D01*
X1024675Y583919D01*
X1024594Y583715D01*
X1024518Y583509D01*
X1024447Y583302D01*
X1024382Y583093D01*
X1024321Y582882D01*
X1024266Y582670D01*
X1024215Y582457D01*
X1024170Y582242D01*
X1024130Y582027D01*
X1024096Y581810D01*
X1024067Y581593D01*
X1024043Y581375D01*
X1024024Y581157D01*
X1024011Y580938D01*
X1024003Y580719D01*
X1024000Y580500D01*
D63*
X364998Y62484D03*
X380238Y62484D03*
X395478Y62484D03*
D64*
X1131100Y462000D03*
X1054900Y462000D03*
D65*
X1054900Y670000D03*
X1131100Y670000D03*
X1054900Y436000D03*
X1131100Y436000D03*
D64*
X1131100Y310000D03*
X1054900Y310000D03*
D56*
X130810Y666750D02*
X130810Y681990D01*
X156210Y681990D02*
X156210Y666750D01*
X181610Y666750D02*
X181610Y681990D01*
X207010Y681990D02*
X207010Y666750D01*
X670560Y666750D02*
X670560Y681990D01*
X695960Y681990D02*
X695960Y666750D01*
X721360Y666750D02*
X721360Y681990D01*
X746760Y681990D02*
X746760Y666750D01*
D64*
X325450Y681304D03*
X249250Y681304D03*
X362255Y659282D03*
X286055Y659282D03*
D65*
X791108Y683209D03*
X867308Y683209D03*
D66*
X923239Y546125D03*
X923239Y622325D03*
D56*
X506730Y666750D02*
X506730Y681990D01*
X532130Y681990D02*
X532130Y666750D01*
X557530Y666750D02*
X557530Y681990D01*
D67*
X103378Y681990D03*
X103378Y666750D03*
X643382Y681990D03*
X643382Y666750D03*
X479298Y681990D03*
X479298Y666750D03*
D68*
X585216Y609092D02*
X620141Y574167D01*
X710184Y593598D02*
X710184Y609092D01*
X690753Y574167D02*
X620141Y574167D01*
X690753Y574167D02*
X710184Y593598D01*
D69*
X913028Y632536D02*
X923239Y622325D01*
X913028Y632536D02*
X884301Y632536D01*
X867308Y649529D01*
X867308Y683209D01*
D70*
X733349Y657682D03*
D71*
X733400Y657631D01*
X733400Y525602D01*
X715543Y507746D02*
X638251Y507746D01*
X715543Y507746D02*
X733400Y525602D01*
X612851Y507746D02*
X612851Y490906D01*
X648310Y455447D01*
X660197Y455447D01*
X679399Y474650D02*
X720395Y474650D01*
X739750Y494005D01*
X739750Y646481D02*
X747141Y653872D01*
X747141Y673989D01*
X746760Y674370D01*
X679399Y474650D02*
X660197Y455447D01*
X739750Y494005D02*
X739750Y646481D01*
D68*
X536651Y507746D02*
X536651Y491795D01*
X550164Y478282D01*
D72*
X914400Y355600D02*
X965200Y355600D01*
D70*
X737616Y431038D03*
X785622Y378714D03*
D68*
X810260Y378714D01*
D70*
X810260Y378714D03*
X901954Y346710D03*
D68*
X910844Y355600D01*
X914400Y355600D01*
X965200Y355600D02*
X1012952Y355600D01*
X1054900Y313652D01*
X1054900Y310000D01*
X1061250Y303650D01*
X1061250Y281200D01*
X647012Y442379D02*
X611109Y478282D01*
X694979Y442379D02*
X695207Y442151D01*
X698228Y442151D01*
X709341Y431038D02*
X737616Y431038D01*
X611109Y478282D02*
X550164Y478282D01*
X647012Y442379D02*
X694979Y442379D01*
X698228Y442151D02*
X709341Y431038D01*
D73*
X511251Y507746D02*
X511251Y524586D01*
X521589Y534924D02*
X549021Y534924D01*
X557530Y543433D01*
X557530Y674370D01*
X521589Y534924D02*
X511251Y524586D01*
D70*
X495917Y388833D03*
X495993Y442841D03*
D68*
X485851Y484937D02*
X485851Y507746D01*
X485851Y484937D02*
X500126Y470662D01*
X500126Y446974D01*
X495993Y442841D01*
D72*
X914400Y431800D02*
X965200Y431800D01*
D70*
X838200Y365252D03*
X851916Y431038D03*
D68*
X852678Y431800D01*
X914400Y431800D01*
X965200Y431800D02*
X991362Y457962D01*
X1010840Y640000D02*
X1068000Y640000D01*
X1010840Y640000D02*
X991362Y620522D01*
X991362Y457962D01*
X631698Y404876D02*
X615655Y388833D01*
X631698Y404876D02*
X672338Y404876D01*
X711962Y365252D01*
X838200Y365252D01*
X615655Y388833D02*
X495917Y388833D01*
D70*
X559054Y366014D03*
D72*
X914400Y406400D02*
X923544Y406400D01*
X965200Y406400D01*
D73*
X895858Y372618D02*
X879094Y355854D01*
X895858Y372618D02*
X895858Y386334D01*
X915924Y406400D01*
X923544Y406400D01*
X965200Y406400D02*
X974598Y406400D01*
X1030198Y462000D02*
X1054900Y462000D01*
X1030198Y462000D02*
X974598Y406400D01*
X599440Y354838D02*
X570230Y354838D01*
X599440Y354838D02*
X622300Y331978D01*
X622300Y312420D02*
X637794Y296926D01*
X660400Y296926D01*
X570230Y354838D02*
X559054Y366014D01*
X622300Y331978D02*
X622300Y312420D01*
X660400Y296926D02*
X719618Y356144D01*
X878804Y356144D02*
X879094Y355854D01*
X878804Y356144D02*
X719618Y356144D01*
D68*
X176784Y559308D02*
X51816Y559308D01*
X229616Y559308D02*
X354584Y559308D01*
X407416Y559308D01*
X532384Y559308D01*
X585216Y559308D02*
X710184Y559308D01*
X763016Y559308D02*
X887984Y559308D01*
X176784Y406908D02*
X51816Y406908D01*
X176784Y406908D02*
X229616Y406908D01*
X354584Y406908D02*
X407416Y406908D01*
X532384Y406908D02*
X585216Y406908D01*
X354584Y406908D02*
X229616Y406908D01*
X407416Y406908D02*
X532384Y406908D01*
D69*
X888492Y406908D02*
X889000Y406400D01*
D68*
X763016Y406908D02*
X710184Y406908D01*
X763016Y406908D02*
X888492Y406908D01*
X609854Y406908D02*
X585216Y406908D01*
X701548Y415544D02*
X710184Y406908D01*
X618490Y415544D02*
X609854Y406908D01*
X618490Y415544D02*
X701548Y415544D01*
D69*
X176784Y254508D02*
X51816Y254508D01*
X176784Y254508D02*
X229616Y254508D01*
X355092Y254508D01*
X355600Y254000D01*
X354584Y254508D02*
X407416Y254508D01*
X532384Y254508D01*
X585216Y254508D01*
X710692Y254508D01*
X711200Y254000D01*
X710184Y254508D02*
X763016Y254508D01*
X887984Y254508D01*
X176784Y102108D02*
X51816Y102108D01*
X176784Y102108D02*
X229616Y102108D01*
X355092Y102108D01*
X355600Y101600D01*
X354584Y102108D02*
X407416Y102108D01*
X532384Y102108D01*
X583692Y102108D01*
X584200Y101600D01*
X585216Y102108D02*
X710184Y102108D01*
X763016Y102108D01*
X888492Y102108D01*
X889000Y101600D01*
D72*
X914400Y330200D02*
X965200Y330200D01*
D70*
X780034Y332232D03*
D73*
X965200Y330200D02*
X1013714Y330200D01*
D70*
X1012952Y330200D03*
D73*
X804228Y308039D02*
X780034Y332232D01*
X850075Y308039D02*
X872236Y330200D01*
X914400Y330200D01*
X850075Y308039D02*
X804228Y308039D01*
D72*
X914400Y304800D02*
X965200Y304800D01*
D70*
X778002Y279400D03*
D73*
X826516Y279400D01*
X912114Y302514D02*
X914400Y304800D01*
X912114Y302514D02*
X912114Y292354D01*
X907796Y288036D01*
X835152Y288036D02*
X826516Y279400D01*
X835152Y288036D02*
X907796Y288036D01*
D70*
X976376Y304800D03*
D73*
X965200Y304800D01*
D68*
X354584Y609092D02*
X229616Y609092D01*
X176784Y456692D02*
X203200Y430276D01*
X282702Y430276D01*
X329692Y477266D01*
X390144Y477266D02*
X395986Y483108D01*
X395986Y507441D01*
X390144Y477266D02*
X329692Y477266D01*
X395681Y507746D02*
X395986Y507441D01*
D73*
X457200Y425450D02*
X639826Y425450D01*
X646972Y432596D01*
X647609Y431960D01*
D70*
X647609Y431960D03*
D73*
X457200Y425450D02*
X440944Y441706D01*
X440944Y487883D02*
X421081Y507746D01*
X440944Y487883D02*
X440944Y441706D01*
D72*
X914400Y381000D02*
X965200Y381000D01*
D70*
X760496Y347127D03*
D73*
X883829Y347127D01*
X914400Y377698D02*
X914400Y381000D01*
X914400Y377698D02*
X883829Y347127D01*
X965200Y381000D02*
X983996Y381000D01*
X1038996Y436000D02*
X1054900Y436000D01*
X1038996Y436000D02*
X983996Y381000D01*
D71*
X207010Y674370D02*
X206553Y673913D01*
X206502Y673913D01*
D73*
X207010Y674370D02*
X242316Y674370D01*
X249250Y681304D01*
D71*
X207010Y674370D02*
X207010Y546354D01*
X217932Y535432D01*
X217932Y507797D01*
X217881Y507746D01*
X200025Y644500D02*
X180670Y663854D01*
X180670Y673430D01*
X181610Y674370D01*
D73*
X225323Y659282D02*
X286055Y659282D01*
X225323Y659282D02*
X219456Y653415D01*
D70*
X219456Y653415D03*
D71*
X200025Y644500D02*
X200025Y545211D01*
X192481Y537667D02*
X192481Y507746D01*
X192481Y537667D02*
X200025Y545211D01*
D68*
X364998Y62484D02*
X364998Y51816D01*
X358851Y45669D02*
X358851Y25146D01*
X358851Y45669D02*
X364998Y51816D01*
X384251Y33985D02*
X384251Y25146D01*
X384251Y33985D02*
X395732Y45466D01*
X395732Y62230D01*
D71*
X395478Y62484D01*
D72*
X914400Y254000D02*
X965200Y254000D01*
D68*
X914400Y254000D02*
X914400Y228067D01*
X914400Y90170D01*
X877341Y53111D01*
X435051Y47955D02*
X435051Y25146D01*
X440207Y53111D02*
X877341Y53111D01*
X440207Y53111D02*
X435051Y47955D01*
X435051Y25146D02*
X409651Y25146D01*
D69*
X695960Y674370D02*
X695960Y691464D01*
X701421Y696925D01*
X756056Y696925D01*
X794156Y658825D02*
X794156Y598399D01*
X811301Y581254D01*
D70*
X923163Y471907D03*
X923163Y227609D03*
D69*
X794156Y658825D02*
X756056Y696925D01*
X811301Y581254D02*
X903427Y581254D01*
X923163Y561518D01*
X923163Y471907D01*
X923163Y227609D02*
X914857Y227609D01*
X914400Y228067D01*
X923239Y546125D02*
X923239Y561442D01*
X923163Y561518D01*
D68*
X1093000Y495000D02*
X1093000Y446062D01*
D70*
X1012952Y381000D03*
D68*
X1052322Y405384D02*
X1093000Y446062D01*
X1037336Y405384D02*
X1012952Y381000D01*
X1037336Y405384D02*
X1052322Y405384D01*
X1061250Y236200D02*
X1032530Y236200D01*
X1014730Y254000D02*
X965200Y254000D01*
X1014730Y254000D02*
X1032530Y236200D01*
D72*
X965200Y279400D02*
X914400Y279400D01*
D68*
X438150Y81534D02*
X380086Y81534D01*
X438150Y81534D02*
X454533Y65151D01*
X773303Y65151D01*
X795528Y87376D01*
D73*
X795274Y87630D01*
D70*
X795274Y87630D03*
X849884Y274828D03*
D68*
X889000Y274828D01*
X893572Y279400D01*
X914400Y279400D01*
X380086Y81534D02*
X344043Y81534D01*
X321869Y59360D01*
X47701Y59360D01*
X18974Y88087D02*
X18974Y629564D01*
X18974Y88087D02*
X47701Y59360D01*
X380238Y62484D02*
X380238Y81382D01*
X380086Y81534D01*
X103510Y698525D02*
X87935Y698525D01*
X103510Y698525D02*
X325450Y698525D01*
X361721Y698525D01*
X480314Y698525D01*
D69*
X362255Y697992D02*
X362255Y659282D01*
X362255Y697992D02*
X361721Y698525D01*
X325450Y698525D02*
X325450Y681304D01*
D68*
X1121664Y585470D02*
X1142238Y606044D01*
X1142238Y659182D01*
X1131100Y436000D02*
X1131354Y435746D01*
X1028560Y175400D02*
X991400Y175400D01*
X1028560Y175400D02*
X1067816Y136144D01*
X1067816Y48616D01*
X1067600Y48400D01*
X1067816Y136144D02*
X1091692Y160020D01*
X1091692Y253746D01*
X1091692Y295148D01*
X1131100Y436000D02*
X1131100Y462000D01*
X1131100Y469938D01*
X1148080Y486918D01*
X1148080Y513334D01*
X1121664Y539750D02*
X1121664Y585470D01*
X1121664Y539750D02*
X1148080Y513334D01*
X1014476Y279400D02*
X965200Y279400D01*
X1014476Y279400D02*
X1040638Y253238D01*
X1091184Y253238D01*
X1091692Y253746D01*
X87935Y698525D02*
X18974Y629564D01*
X479298Y681990D02*
X479298Y697509D01*
X480314Y698525D01*
X606552Y681990D02*
X643382Y681990D01*
X590017Y698525D02*
X480314Y698525D01*
X590017Y698525D02*
X606552Y681990D01*
X1091692Y295148D02*
X1106544Y310000D01*
X1131100Y310000D01*
X1131100Y435492D01*
X1131354Y435746D01*
X1142238Y659182D02*
X1131420Y670000D01*
X1131100Y670000D01*
X103378Y681990D02*
X103378Y698393D01*
X103510Y698525D01*
X103378Y666750D02*
X123190Y666750D01*
X130810Y674370D01*
X643382Y666750D02*
X662940Y666750D01*
X670560Y674370D01*
X499110Y666750D02*
X479298Y666750D01*
X499110Y666750D02*
X506730Y674370D01*
D74*
X102870Y669290D02*
X102870Y679958D01*
X382524Y62230D02*
X393192Y62230D01*
X479298Y668528D02*
X479298Y679196D01*
X643128Y679958D02*
X643128Y669290D01*
M02*
