M48
;GenerationSoftware,Autodesk,EAGLE,9.6.2*%
;CreationDate,2020-11-03T15:46:43Z*%
FMAT,2
ICI,OFF
METRIC,TZ,000.000
T11C0.483
T10C0.813
T9C0.889
T8C1.000
T7C1.016
T6C1.100
T5C1.194
T4C1.397
T3C1.803
T2C2.800
T1C3.200
%
G90
M71
T1
X91000Y68000
X117000Y68000
X91000Y3000
X101440Y3000
X101440Y68000
X13970Y2540
X3000Y3000
X117000Y3000
X3000Y68000
T2
X66040Y35560
X15240Y50800
T3
X29210Y17196
X11430Y8204
X46990Y17196
X64770Y8204
X64770Y17196
X64770Y53924
X82550Y17196
X82550Y8204
X11430Y17196
X29210Y8204
X46990Y62916
X11430Y53924
X11430Y62916
X29210Y53924
X29210Y62916
X46990Y53924
X11430Y47676
X46990Y8204
X64770Y62916
X82550Y53924
X82550Y62916
X11430Y38684
X29210Y38684
X29210Y47676
X46990Y38684
X46990Y47676
X64770Y38684
X64770Y47676
X82550Y38684
X82550Y47676
X11430Y23444
X11430Y32436
X29210Y23444
X29210Y32436
X46990Y23444
X46990Y32436
X64770Y23444
X64770Y32436
X82550Y23444
X82550Y32436
T4
X101680Y21668
X101680Y8333
X116920Y8333
X116920Y21668
T5
X40742Y45669
X53238Y45669
X58522Y40691
X71018Y40691
X58522Y45669
X71018Y45669
X76302Y40691
X88798Y40691
X88798Y45669
X5182Y25451
X17678Y25451
X5182Y30429
X17678Y30429
X22962Y25451
X35458Y25451
X22962Y30429
X35458Y30429
X40742Y25451
X53238Y25451
X40742Y30429
X53238Y30429
X58522Y25451
X71018Y25451
X58522Y30429
X71018Y30429
X76302Y25451
X88798Y25451
X76302Y30429
X88798Y30429
X5182Y10211
X17678Y10211
X5182Y15189
X17678Y15189
X22962Y10211
X35458Y10211
X22962Y15189
X40742Y60909
X35458Y15189
X40742Y10211
X53238Y10211
X40742Y15189
X53238Y15189
X58522Y10211
X71018Y10211
X58522Y15189
X71018Y15189
X76302Y10211
X88798Y10211
X76302Y15189
X88798Y15189
X5182Y55931
X17678Y55931
X5182Y60909
X17678Y60909
X22962Y55931
X35458Y55931
X22962Y60909
X35458Y60909
X40742Y55931
X53238Y55931
X76302Y45669
X53238Y60909
X58522Y55931
X71018Y55931
X58522Y60909
X71018Y60909
X76302Y55931
X88798Y55931
X76302Y60909
X88798Y60909
X5182Y40691
X17678Y40691
X5182Y45669
X17678Y45669
X22962Y40691
X35458Y40691
X22962Y45669
X35458Y45669
X40742Y40691
X53238Y40691
T6
X106125Y28120
X106125Y23620
X112475Y28120
X112475Y23620
T7
X33345Y2515
X53213Y67437
X50673Y67437
X74676Y67437
X69596Y67437
X67056Y67437
X20701Y67437
X18161Y67437
X15621Y67437
X13081Y67437
X72136Y67437
X58745Y50775
X55753Y67437
X35885Y2515
X38425Y2515
X40965Y2515
X43505Y2515
X46045Y2515
X19248Y50775
X21788Y50775
X56205Y50775
X26868Y50775
X29408Y50775
X31948Y50775
X34488Y50775
X37028Y50775
X39568Y50775
X42108Y50775
X46045Y50775
X48585Y50775
X51125Y50775
X53665Y50775
X24328Y50775
X61285Y50775
X63825Y50775
X51252Y2515
X53792Y2515
X56332Y2515
X58872Y2515
X61412Y2515
X63952Y2515
X28265Y2515
X30805Y2515
T8
X111800Y64000
X106800Y64000
X106800Y49500
X109300Y49500
X111800Y49500
T9
X99140Y15000
X99140Y12460
X111840Y4840
X109300Y4840
X106760Y4840
X99140Y17540
T10
X86731Y68321
X113110Y43600
X113110Y31000
X105490Y31000
X32545Y68130
X24925Y68130
X36225Y65928
X28605Y65928
X79111Y68321
X92324Y54613
X92324Y62233
X113110Y46200
X105490Y46200
X105490Y67000
X113110Y67000
X105490Y43600
T11
X101295Y38100
X92316Y22761
X92316Y47191
X21946Y65341
X76050Y34713
X97638Y30480
X73335Y65768
X84988Y27483
X64761Y43196
X79527Y8763
X77800Y27940
X101295Y33020
X78003Y33223
X55905Y36601
X85192Y43104
X83820Y36525
X78562Y37871
X49599Y44284
X73762Y43104
X90195Y34671
X81026Y37871
X49592Y38883
M30