G04 EAGLE Gerber RS-274X export*
G75*
%MOMM*%
%FSLAX34Y34*%
%LPD*%
%INSilkscreen Bottom*%
%IPPOS*%
%AMOC8*
5,1,8,0,0,1.08239X$1,22.5*%
G01*
%ADD10C,0.254000*%
%ADD11C,0.203200*%
%ADD12C,0.152400*%
%ADD13C,0.127000*%
%ADD14C,0.101600*%


D10*
X647750Y533146D02*
X0Y533146D01*
X647750Y533146D02*
X665022Y516022D01*
X665022Y404567D01*
X691054Y379167D01*
X691054Y50235D01*
X665022Y24689D01*
X665022Y0D01*
D11*
X27522Y137848D02*
X11760Y137848D01*
X17014Y143102D01*
X11760Y148356D01*
X27522Y148356D01*
X27522Y154220D02*
X11760Y154220D01*
X17014Y159473D01*
X11760Y164727D01*
X27522Y164727D01*
X27522Y170591D02*
X11760Y170591D01*
X17014Y175845D01*
X11760Y181099D01*
X27522Y181099D01*
X14387Y186963D02*
X11760Y186963D01*
X14387Y186963D02*
X14387Y189590D01*
X11760Y189590D01*
X11760Y186963D01*
X27522Y203029D02*
X24895Y205656D01*
X27522Y203029D02*
X27522Y197775D01*
X24895Y195148D01*
X22268Y195148D01*
X19641Y197775D01*
X19641Y203029D01*
X17014Y205656D01*
X14387Y205656D01*
X11760Y203029D01*
X11760Y197775D01*
X14387Y195148D01*
X27522Y211520D02*
X27522Y222028D01*
X27522Y211520D02*
X11760Y211520D01*
X11760Y222028D01*
X19641Y216774D02*
X19641Y211520D01*
X11760Y233145D02*
X27522Y233145D01*
X27522Y227892D02*
X27522Y238399D01*
X27522Y249517D02*
X11760Y249517D01*
X27522Y244263D02*
X27522Y254771D01*
X27522Y263262D02*
X27522Y268515D01*
X27522Y263262D02*
X24895Y260635D01*
X14387Y260635D01*
X11760Y263262D01*
X11760Y268515D01*
X14387Y271142D01*
X24895Y271142D01*
X27522Y268515D01*
X27522Y277006D02*
X11760Y277006D01*
X27522Y277006D02*
X27522Y284887D01*
X24895Y287514D01*
X19641Y287514D01*
X17014Y284887D01*
X17014Y277006D01*
X17014Y282260D02*
X11760Y287514D01*
X27522Y293378D02*
X27522Y303885D01*
X27522Y293378D02*
X11760Y293378D01*
X11760Y303885D01*
X19641Y298632D02*
X19641Y293378D01*
X27522Y309749D02*
X27522Y320257D01*
X24895Y320257D01*
X14387Y309749D01*
X11760Y309749D01*
X11760Y320257D01*
X27522Y326121D02*
X27522Y336629D01*
X27522Y326121D02*
X11760Y326121D01*
X11760Y336629D01*
X19641Y331375D02*
X19641Y326121D01*
X11760Y342492D02*
X27522Y342492D01*
X27522Y350373D01*
X24895Y353000D01*
X19641Y353000D01*
X17014Y350373D01*
X17014Y342492D01*
X17014Y347746D02*
X11760Y353000D01*
X27522Y361491D02*
X27522Y366745D01*
X27522Y361491D02*
X24895Y358864D01*
X14387Y358864D01*
X11760Y361491D01*
X11760Y366745D01*
X14387Y369372D01*
X24895Y369372D01*
X27522Y366745D01*
X14387Y375236D02*
X11760Y375236D01*
X14387Y375236D02*
X14387Y377863D01*
X11760Y377863D01*
X11760Y375236D01*
X27522Y391302D02*
X24895Y393929D01*
X27522Y391302D02*
X27522Y386048D01*
X24895Y383421D01*
X14387Y383421D01*
X11760Y386048D01*
X11760Y391302D01*
X14387Y393929D01*
X27522Y402420D02*
X27522Y407674D01*
X27522Y402420D02*
X24895Y399793D01*
X14387Y399793D01*
X11760Y402420D01*
X11760Y407674D01*
X14387Y410301D01*
X24895Y410301D01*
X27522Y407674D01*
X27522Y416165D02*
X11760Y416165D01*
X22268Y421418D02*
X27522Y416165D01*
X22268Y421418D02*
X27522Y426672D01*
X11760Y426672D01*
X665124Y90679D02*
X675632Y90679D01*
X680886Y95933D01*
X675632Y101187D01*
X665124Y101187D01*
X673005Y101187D02*
X673005Y90679D01*
X665124Y107050D02*
X680886Y107050D01*
X680886Y114931D01*
X678259Y117558D01*
X673005Y117558D01*
X670378Y114931D01*
X670378Y107050D01*
X670378Y112304D02*
X665124Y117558D01*
X665124Y123422D02*
X680886Y123422D01*
X665124Y123422D02*
X665124Y131303D01*
X667751Y133930D01*
X678259Y133930D01*
X680886Y131303D01*
X680886Y123422D01*
X680886Y139794D02*
X667751Y139794D01*
X665124Y142421D01*
X665124Y147674D01*
X667751Y150301D01*
X680886Y150301D01*
X665124Y156165D02*
X665124Y161419D01*
X665124Y158792D02*
X680886Y158792D01*
X680886Y156165D02*
X680886Y161419D01*
X680886Y167080D02*
X665124Y167080D01*
X665124Y177587D02*
X680886Y167080D01*
X680886Y177587D02*
X665124Y177587D01*
X680886Y186078D02*
X680886Y191332D01*
X680886Y186078D02*
X678259Y183451D01*
X667751Y183451D01*
X665124Y186078D01*
X665124Y191332D01*
X667751Y193959D01*
X678259Y193959D01*
X680886Y191332D01*
X680886Y216194D02*
X665124Y216194D01*
X665124Y226702D01*
X680886Y232566D02*
X680886Y243073D01*
X680886Y232566D02*
X665124Y232566D01*
X665124Y243073D01*
X673005Y237820D02*
X673005Y232566D01*
X680886Y251564D02*
X680886Y256818D01*
X680886Y251564D02*
X678259Y248937D01*
X667751Y248937D01*
X665124Y251564D01*
X665124Y256818D01*
X667751Y259445D01*
X678259Y259445D01*
X680886Y256818D01*
X680886Y265309D02*
X665124Y265309D01*
X665124Y275817D02*
X680886Y265309D01*
X680886Y275817D02*
X665124Y275817D01*
X665124Y281680D02*
X675632Y281680D01*
X680886Y286934D01*
X675632Y292188D01*
X665124Y292188D01*
X673005Y292188D02*
X673005Y281680D01*
X665124Y298052D02*
X680886Y298052D01*
X680886Y305933D01*
X678259Y308560D01*
X673005Y308560D01*
X670378Y305933D01*
X670378Y298052D01*
X670378Y303306D02*
X665124Y308560D01*
X665124Y314424D02*
X680886Y314424D01*
X665124Y314424D02*
X665124Y322304D01*
X667751Y324931D01*
X678259Y324931D01*
X680886Y322304D01*
X680886Y314424D01*
X680886Y333422D02*
X680886Y338676D01*
X680886Y333422D02*
X678259Y330795D01*
X667751Y330795D01*
X665124Y333422D01*
X665124Y338676D01*
X667751Y341303D01*
X678259Y341303D01*
X680886Y338676D01*
D12*
X517916Y44176D02*
X506730Y44176D01*
X517916Y44176D02*
X517916Y49769D01*
X516051Y51633D01*
X512323Y51633D01*
X510459Y49769D01*
X510459Y44176D01*
X510459Y47905D02*
X506730Y51633D01*
X514187Y55870D02*
X517916Y59599D01*
X506730Y59599D01*
X506730Y63327D02*
X506730Y55870D01*
X532130Y44176D02*
X543316Y44176D01*
X543316Y49769D01*
X541451Y51633D01*
X537723Y51633D01*
X535859Y49769D01*
X535859Y44176D01*
X535859Y47905D02*
X532130Y51633D01*
X532130Y55870D02*
X532130Y63327D01*
X532130Y55870D02*
X539587Y63327D01*
X541451Y63327D01*
X543316Y61463D01*
X543316Y57734D01*
X541451Y55870D01*
X557530Y44176D02*
X568716Y44176D01*
X568716Y49769D01*
X566851Y51633D01*
X563123Y51633D01*
X561259Y49769D01*
X561259Y44176D01*
X561259Y47905D02*
X557530Y51633D01*
X566851Y55870D02*
X568716Y57734D01*
X568716Y61463D01*
X566851Y63327D01*
X564987Y63327D01*
X563123Y61463D01*
X563123Y59599D01*
X563123Y61463D02*
X561259Y63327D01*
X559394Y63327D01*
X557530Y61463D01*
X557530Y57734D01*
X559394Y55870D01*
X582930Y44176D02*
X594116Y44176D01*
X594116Y49769D01*
X592251Y51633D01*
X588523Y51633D01*
X586659Y49769D01*
X586659Y44176D01*
X586659Y47905D02*
X582930Y51633D01*
X582930Y61463D02*
X594116Y61463D01*
X588523Y55870D01*
X588523Y63327D01*
X401838Y475727D02*
X399973Y477591D01*
X401838Y475727D02*
X401838Y471998D01*
X399973Y470134D01*
X392516Y470134D01*
X390652Y471998D01*
X390652Y475727D01*
X392516Y477591D01*
X398109Y481828D02*
X401838Y485557D01*
X390652Y485557D01*
X390652Y489285D02*
X390652Y481828D01*
X376438Y475727D02*
X374573Y477591D01*
X376438Y475727D02*
X376438Y471998D01*
X374573Y470134D01*
X367116Y470134D01*
X365252Y471998D01*
X365252Y475727D01*
X367116Y477591D01*
X365252Y481828D02*
X365252Y489285D01*
X365252Y481828D02*
X372709Y489285D01*
X374573Y489285D01*
X376438Y487421D01*
X376438Y483692D01*
X374573Y481828D01*
X351038Y475727D02*
X349173Y477591D01*
X351038Y475727D02*
X351038Y471998D01*
X349173Y470134D01*
X341716Y470134D01*
X339852Y471998D01*
X339852Y475727D01*
X341716Y477591D01*
X349173Y481828D02*
X351038Y483692D01*
X351038Y487421D01*
X349173Y489285D01*
X347309Y489285D01*
X345445Y487421D01*
X345445Y485557D01*
X345445Y487421D02*
X343581Y489285D01*
X341716Y489285D01*
X339852Y487421D01*
X339852Y483692D01*
X341716Y481828D01*
X325638Y475727D02*
X323773Y477591D01*
X325638Y475727D02*
X325638Y471998D01*
X323773Y470134D01*
X316316Y470134D01*
X314452Y471998D01*
X314452Y475727D01*
X316316Y477591D01*
X314452Y487421D02*
X325638Y487421D01*
X320045Y481828D01*
X320045Y489285D01*
X296849Y450921D02*
X298714Y449057D01*
X298714Y445328D01*
X296849Y443464D01*
X289392Y443464D01*
X287528Y445328D01*
X287528Y449057D01*
X289392Y450921D01*
X298714Y455158D02*
X298714Y462615D01*
X298714Y455158D02*
X293121Y455158D01*
X294985Y458887D01*
X294985Y460751D01*
X293121Y462615D01*
X289392Y462615D01*
X287528Y460751D01*
X287528Y457022D01*
X289392Y455158D01*
D11*
X990857Y343028D02*
X993484Y340401D01*
X993484Y335147D01*
X990857Y332520D01*
X980349Y332520D01*
X977722Y335147D01*
X977722Y340401D01*
X980349Y343028D01*
X985603Y343028D01*
X985603Y337774D01*
X977722Y348892D02*
X977722Y354145D01*
X977722Y351518D02*
X993484Y351518D01*
X993484Y348892D02*
X993484Y354145D01*
X993484Y362433D02*
X993484Y367687D01*
X993484Y362433D02*
X990857Y359806D01*
X980349Y359806D01*
X977722Y362433D01*
X977722Y367687D01*
X980349Y370314D01*
X990857Y370314D01*
X993484Y367687D01*
X993484Y376177D02*
X982976Y376177D01*
X977722Y381431D01*
X982976Y386685D01*
X993484Y386685D01*
X988230Y392549D02*
X977722Y392549D01*
X988230Y392549D02*
X993484Y397803D01*
X988230Y403057D01*
X977722Y403057D01*
X985603Y403057D02*
X985603Y392549D01*
X977722Y408921D02*
X993484Y408921D01*
X977722Y419428D01*
X993484Y419428D01*
X993484Y425292D02*
X977722Y425292D01*
X977722Y435800D02*
X993484Y425292D01*
X993484Y435800D02*
X977722Y435800D01*
X977722Y441664D02*
X977722Y446918D01*
X977722Y444291D02*
X993484Y444291D01*
X993484Y441664D02*
X993484Y446918D01*
X993484Y468950D02*
X977722Y468950D01*
X993484Y468950D02*
X993484Y476830D01*
X990857Y479457D01*
X988230Y479457D01*
X985603Y476830D01*
X982976Y479457D01*
X980349Y479457D01*
X977722Y476830D01*
X977722Y468950D01*
X985603Y468950D02*
X985603Y476830D01*
X993484Y485321D02*
X993484Y495829D01*
X993484Y485321D02*
X977722Y485321D01*
X977722Y495829D01*
X985603Y490575D02*
X985603Y485321D01*
X977722Y501693D02*
X993484Y501693D01*
X993484Y509573D01*
X990857Y512200D01*
X985603Y512200D01*
X982976Y509573D01*
X982976Y501693D01*
X982976Y506947D02*
X977722Y512200D01*
X977722Y518064D02*
X993484Y518064D01*
X977722Y528572D01*
X993484Y528572D01*
X988230Y534436D02*
X977722Y534436D01*
X988230Y534436D02*
X993484Y539690D01*
X988230Y544944D01*
X977722Y544944D01*
X985603Y544944D02*
X985603Y534436D01*
X977722Y550807D02*
X993484Y550807D01*
X993484Y558688D01*
X990857Y561315D01*
X985603Y561315D01*
X982976Y558688D01*
X982976Y550807D01*
X982976Y556061D02*
X977722Y561315D01*
X977722Y567179D02*
X993484Y567179D01*
X977722Y567179D02*
X977722Y575060D01*
X980349Y577687D01*
X990857Y577687D01*
X993484Y575060D01*
X993484Y567179D01*
X993484Y586177D02*
X993484Y591431D01*
X993484Y586177D02*
X990857Y583551D01*
X980349Y583551D01*
X977722Y586177D01*
X977722Y591431D01*
X980349Y594058D01*
X990857Y594058D01*
X993484Y591431D01*
X968211Y334591D02*
X952449Y334591D01*
X968211Y334591D02*
X968211Y342471D01*
X965584Y345098D01*
X960330Y345098D01*
X957703Y342471D01*
X957703Y334591D01*
X957703Y339845D02*
X952449Y345098D01*
X968211Y353589D02*
X968211Y358843D01*
X968211Y353589D02*
X965584Y350962D01*
X955076Y350962D01*
X952449Y353589D01*
X952449Y358843D01*
X955076Y361470D01*
X965584Y361470D01*
X968211Y358843D01*
X968211Y367334D02*
X952449Y367334D01*
X968211Y367334D02*
X968211Y375215D01*
X965584Y377841D01*
X962957Y377841D01*
X960330Y375215D01*
X957703Y377841D01*
X955076Y377841D01*
X952449Y375215D01*
X952449Y367334D01*
X960330Y367334D02*
X960330Y375215D01*
X968211Y383705D02*
X968211Y394213D01*
X968211Y383705D02*
X952449Y383705D01*
X952449Y394213D01*
X960330Y388959D02*
X960330Y383705D01*
X952449Y400077D02*
X968211Y400077D01*
X968211Y407958D01*
X965584Y410585D01*
X960330Y410585D01*
X957703Y407958D01*
X957703Y400077D01*
X957703Y405331D02*
X952449Y410585D01*
X952449Y421702D02*
X968211Y421702D01*
X968211Y416449D02*
X968211Y426956D01*
X968211Y435447D02*
X968211Y440701D01*
X968211Y435447D02*
X965584Y432820D01*
X955076Y432820D01*
X952449Y435447D01*
X952449Y440701D01*
X955076Y443328D01*
X965584Y443328D01*
X968211Y440701D01*
X968211Y465563D02*
X952449Y465563D01*
X952449Y473444D01*
X955076Y476071D01*
X965584Y476071D01*
X968211Y473444D01*
X968211Y465563D01*
X970838Y484562D02*
X965584Y484562D01*
X962957Y481935D01*
X962957Y490121D02*
X952449Y490121D01*
X962957Y490121D02*
X968211Y495374D01*
X962957Y500628D01*
X952449Y500628D01*
X960330Y500628D02*
X960330Y490121D01*
X952449Y506492D02*
X968211Y506492D01*
X962957Y511746D01*
X968211Y517000D01*
X952449Y517000D01*
X952449Y522864D02*
X952449Y528118D01*
X952449Y525491D02*
X968211Y525491D01*
X968211Y522864D02*
X968211Y528118D01*
X968211Y541659D02*
X965584Y544286D01*
X968211Y541659D02*
X968211Y536405D01*
X965584Y533778D01*
X955076Y533778D01*
X952449Y536405D01*
X952449Y541659D01*
X955076Y544286D01*
X968211Y552777D02*
X968211Y558030D01*
X968211Y552777D02*
X965584Y550150D01*
X955076Y550150D01*
X952449Y552777D01*
X952449Y558030D01*
X955076Y560657D01*
X965584Y560657D01*
X968211Y558030D01*
X940000Y682353D02*
X940000Y710000D01*
X940000Y667353D02*
X940000Y639706D01*
X940000Y624706D02*
X940000Y597059D01*
X940000Y582059D02*
X940000Y554412D01*
X940000Y539412D02*
X940000Y511765D01*
X940000Y496765D02*
X940000Y469118D01*
X940000Y454118D02*
X940000Y426471D01*
X940000Y411471D02*
X940000Y383824D01*
X940000Y368824D02*
X940000Y341176D01*
X940000Y326176D02*
X940000Y298529D01*
X940000Y283529D02*
X940000Y255882D01*
X940000Y240882D02*
X940000Y213235D01*
X940000Y198235D02*
X940000Y170588D01*
X940000Y155588D02*
X940000Y127941D01*
X940000Y112941D02*
X940000Y85294D01*
X940000Y70294D02*
X940000Y42647D01*
X940000Y27647D02*
X940000Y0D01*
D12*
X492262Y408616D02*
X492262Y416073D01*
X492262Y408616D02*
X481076Y408616D01*
X481076Y416073D01*
X486669Y412345D02*
X486669Y408616D01*
X481076Y420310D02*
X492262Y420310D01*
X481076Y427767D01*
X492262Y427767D01*
X492262Y437597D02*
X490397Y439461D01*
X492262Y437597D02*
X492262Y433868D01*
X490397Y432004D01*
X482940Y432004D01*
X481076Y433868D01*
X481076Y437597D01*
X482940Y439461D01*
X479212Y443698D02*
X479212Y451155D01*
X481076Y455392D02*
X492262Y455392D01*
X492262Y460985D01*
X490397Y462849D01*
X488533Y462849D01*
X486669Y460985D01*
X484805Y462849D01*
X482940Y462849D01*
X481076Y460985D01*
X481076Y455392D01*
X486669Y455392D02*
X486669Y460985D01*
X481076Y470814D02*
X492262Y470814D01*
X492262Y467086D02*
X492262Y474543D01*
X492262Y478780D02*
X481076Y478780D01*
X481076Y486237D02*
X492262Y478780D01*
X492262Y486237D02*
X481076Y486237D01*
X505968Y468610D02*
X517154Y468610D01*
X505968Y468610D02*
X505968Y474203D01*
X507832Y476067D01*
X515289Y476067D01*
X517154Y474203D01*
X517154Y468610D01*
X517154Y480304D02*
X517154Y487761D01*
X517154Y480304D02*
X511561Y480304D01*
X513425Y484033D01*
X513425Y485897D01*
X511561Y487761D01*
X507832Y487761D01*
X505968Y485897D01*
X505968Y482168D01*
X507832Y480304D01*
D13*
X561685Y380540D02*
X563253Y378972D01*
X563253Y375837D01*
X561685Y374269D01*
X560118Y374269D01*
X558550Y375837D01*
X558550Y378972D01*
X556982Y380540D01*
X555415Y380540D01*
X553847Y378972D01*
X553847Y375837D01*
X555415Y374269D01*
X553847Y387227D02*
X563253Y387227D01*
X563253Y384092D02*
X563253Y390363D01*
X553847Y393915D02*
X553847Y397050D01*
X553847Y395483D02*
X563253Y395483D01*
X563253Y397050D02*
X563253Y393915D01*
X563253Y405167D02*
X561685Y406734D01*
X563253Y405167D02*
X563253Y402031D01*
X561685Y400464D01*
X555415Y400464D01*
X553847Y402031D01*
X553847Y405167D01*
X555415Y406734D01*
X553847Y410286D02*
X563253Y410286D01*
X556982Y410286D02*
X563253Y416557D01*
X558550Y411854D02*
X553847Y416557D01*
X553847Y429932D02*
X563253Y429932D01*
X563253Y434635D01*
X561685Y436203D01*
X560118Y436203D01*
X558550Y434635D01*
X556982Y436203D01*
X555415Y436203D01*
X553847Y434635D01*
X553847Y429932D01*
X558550Y429932D02*
X558550Y434635D01*
X553847Y442891D02*
X563253Y442891D01*
X563253Y446026D02*
X563253Y439755D01*
X563253Y449578D02*
X553847Y449578D01*
X553847Y455849D02*
X563253Y449578D01*
X563253Y455849D02*
X553847Y455849D01*
D12*
X457210Y439207D02*
X457210Y431750D01*
X446024Y431750D01*
X446024Y439207D01*
X451617Y435479D02*
X451617Y431750D01*
X446024Y443444D02*
X457210Y443444D01*
X446024Y450901D01*
X457210Y450901D01*
X457210Y460731D02*
X455345Y462595D01*
X457210Y460731D02*
X457210Y457002D01*
X455345Y455138D01*
X447888Y455138D01*
X446024Y457002D01*
X446024Y460731D01*
X447888Y462595D01*
X444160Y466832D02*
X444160Y474289D01*
X446024Y478526D02*
X453481Y478526D01*
X457210Y482254D01*
X453481Y485983D01*
X446024Y485983D01*
X451617Y485983D02*
X451617Y478526D01*
X439430Y439207D02*
X439430Y431750D01*
X428244Y431750D01*
X428244Y439207D01*
X433837Y435479D02*
X433837Y431750D01*
X428244Y443444D02*
X439430Y443444D01*
X428244Y450901D01*
X439430Y450901D01*
X439430Y460731D02*
X437565Y462595D01*
X439430Y460731D02*
X439430Y457002D01*
X437565Y455138D01*
X430108Y455138D01*
X428244Y457002D01*
X428244Y460731D01*
X430108Y462595D01*
X426380Y466832D02*
X426380Y474289D01*
X428244Y478526D02*
X439430Y478526D01*
X439430Y484119D01*
X437565Y485983D01*
X435701Y485983D01*
X433837Y484119D01*
X431973Y485983D01*
X430108Y485983D01*
X428244Y484119D01*
X428244Y478526D01*
X433837Y478526D02*
X433837Y484119D01*
X582930Y44176D02*
X594116Y44176D01*
X594116Y49769D01*
X592251Y51633D01*
X588523Y51633D01*
X586659Y49769D01*
X586659Y44176D01*
X586659Y47905D02*
X582930Y51633D01*
X582930Y61463D02*
X594116Y61463D01*
X588523Y55870D01*
X588523Y63327D01*
X618159Y43932D02*
X620024Y43932D01*
X618159Y43932D02*
X614431Y47661D01*
X618159Y51389D01*
X620024Y51389D01*
X614431Y47661D02*
X608838Y47661D01*
X635000Y50881D02*
X646186Y43424D01*
X646186Y50881D02*
X635000Y43424D01*
X633994Y76751D02*
X632129Y78615D01*
X633994Y76751D02*
X633994Y73022D01*
X632129Y71158D01*
X630265Y71158D01*
X628401Y73022D01*
X628401Y76751D01*
X626537Y78615D01*
X624672Y78615D01*
X622808Y76751D01*
X622808Y73022D01*
X624672Y71158D01*
X622808Y86581D02*
X633994Y86581D01*
X633994Y90309D02*
X633994Y82852D01*
X622808Y94546D02*
X622808Y98274D01*
X622808Y96410D02*
X633994Y96410D01*
X633994Y94546D02*
X633994Y98274D01*
X633994Y107935D02*
X632129Y109799D01*
X633994Y107935D02*
X633994Y104206D01*
X632129Y102342D01*
X624672Y102342D01*
X622808Y104206D01*
X622808Y107935D01*
X624672Y109799D01*
X622808Y114036D02*
X633994Y114036D01*
X626537Y114036D02*
X633994Y121493D01*
X628401Y115900D02*
X622808Y121493D01*
X440446Y48743D02*
X438581Y50607D01*
X440446Y48743D02*
X440446Y45014D01*
X438581Y43150D01*
X431124Y43150D01*
X429260Y45014D01*
X429260Y48743D01*
X431124Y50607D01*
X434853Y50607D01*
X434853Y46879D01*
X429260Y54844D02*
X440446Y54844D01*
X429260Y62301D01*
X440446Y62301D01*
X440446Y66538D02*
X429260Y66538D01*
X429260Y72131D01*
X431124Y73995D01*
X438581Y73995D01*
X440446Y72131D01*
X440446Y66538D01*
X414538Y47727D02*
X412673Y49591D01*
X414538Y47727D02*
X414538Y43998D01*
X412673Y42134D01*
X405216Y42134D01*
X403352Y43998D01*
X403352Y47727D01*
X405216Y49591D01*
X408945Y49591D01*
X408945Y45863D01*
X403352Y53828D02*
X414538Y53828D01*
X403352Y61285D01*
X414538Y61285D01*
X414538Y65522D02*
X403352Y65522D01*
X403352Y71115D01*
X405216Y72979D01*
X412673Y72979D01*
X414538Y71115D01*
X414538Y65522D01*
X388630Y50617D02*
X388630Y43160D01*
X383037Y43160D01*
X384901Y46889D01*
X384901Y48753D01*
X383037Y50617D01*
X379308Y50617D01*
X377444Y48753D01*
X377444Y45024D01*
X379308Y43160D01*
X381173Y54854D02*
X388630Y54854D01*
X381173Y54854D02*
X377444Y58583D01*
X381173Y62311D01*
X388630Y62311D01*
X364754Y44506D02*
X362889Y42642D01*
X364754Y44506D02*
X364754Y48235D01*
X362889Y50099D01*
X361025Y50099D01*
X359161Y48235D01*
X359161Y46371D01*
X359161Y48235D02*
X357297Y50099D01*
X355432Y50099D01*
X353568Y48235D01*
X353568Y44506D01*
X355432Y42642D01*
X357297Y54336D02*
X364754Y54336D01*
X357297Y54336D02*
X353568Y58065D01*
X357297Y61793D01*
X364754Y61793D01*
X362889Y66030D02*
X364754Y67894D01*
X364754Y71623D01*
X362889Y73487D01*
X361025Y73487D01*
X359161Y71623D01*
X359161Y69758D01*
X359161Y71623D02*
X357297Y73487D01*
X355432Y73487D01*
X353568Y71623D01*
X353568Y67894D01*
X355432Y66030D01*
X273822Y460985D02*
X271957Y462849D01*
X273822Y460985D02*
X273822Y457256D01*
X271957Y455392D01*
X264500Y455392D01*
X262636Y457256D01*
X262636Y460985D01*
X264500Y462849D01*
X268229Y462849D01*
X268229Y459121D01*
X262636Y467086D02*
X273822Y467086D01*
X262636Y474543D01*
X273822Y474543D01*
X273822Y478780D02*
X262636Y478780D01*
X262636Y484373D01*
X264500Y486237D01*
X271957Y486237D01*
X273822Y484373D01*
X273822Y478780D01*
D14*
X222257Y472148D02*
X220925Y473480D01*
X222257Y472148D02*
X222257Y469485D01*
X220925Y468153D01*
X219593Y468153D01*
X218261Y469485D01*
X218261Y472148D01*
X216930Y473480D01*
X215598Y473480D01*
X214266Y472148D01*
X214266Y469485D01*
X215598Y468153D01*
X214266Y476440D02*
X222257Y476440D01*
X214266Y476440D02*
X214266Y480435D01*
X215598Y481767D01*
X220925Y481767D01*
X222257Y480435D01*
X222257Y476440D01*
X219593Y484727D02*
X214266Y484727D01*
X219593Y484727D02*
X222257Y487391D01*
X219593Y490054D01*
X214266Y490054D01*
X218261Y490054D02*
X218261Y484727D01*
X196349Y472148D02*
X195017Y473480D01*
X196349Y472148D02*
X196349Y469485D01*
X195017Y468153D01*
X193685Y468153D01*
X192353Y469485D01*
X192353Y472148D01*
X191022Y473480D01*
X189690Y473480D01*
X188358Y472148D01*
X188358Y469485D01*
X189690Y468153D01*
X196349Y480435D02*
X195017Y481767D01*
X196349Y480435D02*
X196349Y477772D01*
X195017Y476440D01*
X189690Y476440D01*
X188358Y477772D01*
X188358Y480435D01*
X189690Y481767D01*
X188358Y484727D02*
X196349Y484727D01*
X188358Y484727D02*
X188358Y490054D01*
D11*
X300228Y492252D02*
X308102Y484378D01*
X308102Y461518D01*
X301752Y455168D01*
X420878Y479044D02*
X420878Y489458D01*
X420878Y479044D02*
X424180Y475742D01*
X450850Y489458D02*
X453644Y492252D01*
D14*
X558182Y468661D02*
X566173Y468661D01*
X558182Y468661D02*
X558182Y472656D01*
X559514Y473988D01*
X564841Y473988D01*
X566173Y472656D01*
X566173Y468661D01*
X564841Y476948D02*
X566173Y478280D01*
X566173Y480943D01*
X564841Y482275D01*
X563509Y482275D01*
X562177Y480943D01*
X562177Y479611D01*
X562177Y480943D02*
X560846Y482275D01*
X559514Y482275D01*
X558182Y480943D01*
X558182Y478280D01*
X559514Y476948D01*
X564841Y485235D02*
X559514Y490562D01*
X559514Y485235D02*
X564841Y490562D01*
X562177Y490562D02*
X562177Y485235D01*
X559514Y487899D02*
X564841Y487899D01*
X583328Y468661D02*
X591319Y468661D01*
X583328Y468661D02*
X583328Y472656D01*
X584660Y473988D01*
X589987Y473988D01*
X591319Y472656D01*
X591319Y468661D01*
X583328Y476948D02*
X583328Y482275D01*
X583328Y476948D02*
X588655Y482275D01*
X589987Y482275D01*
X591319Y480943D01*
X591319Y478280D01*
X589987Y476948D01*
X589987Y485235D02*
X584660Y490562D01*
X584660Y485235D02*
X589987Y490562D01*
X587323Y490562D02*
X587323Y485235D01*
X584660Y487899D02*
X589987Y487899D01*
D12*
X453764Y390321D02*
X446307Y382864D01*
X453764Y382864D02*
X446307Y390321D01*
X446307Y386593D02*
X453764Y386593D01*
X450035Y390321D02*
X450035Y382864D01*
X440206Y392186D02*
X436477Y392186D01*
X440206Y392186D02*
X442070Y390321D01*
X442070Y382864D01*
X440206Y381000D01*
X436477Y381000D01*
X434613Y382864D01*
X434613Y390321D01*
X436477Y392186D01*
X430376Y392186D02*
X430376Y381000D01*
X422919Y381000D02*
X430376Y392186D01*
X422919Y392186D02*
X422919Y381000D01*
X406988Y381000D02*
X406988Y392186D01*
X406988Y381000D02*
X399531Y381000D01*
X395294Y392186D02*
X387837Y392186D01*
X395294Y392186D02*
X395294Y381000D01*
X387837Y381000D01*
X391566Y386593D02*
X395294Y386593D01*
X381736Y392186D02*
X378007Y392186D01*
X381736Y392186D02*
X383600Y390321D01*
X383600Y382864D01*
X381736Y381000D01*
X378007Y381000D01*
X376143Y382864D01*
X376143Y390321D01*
X378007Y392186D01*
X371906Y392186D02*
X371906Y381000D01*
X364449Y381000D02*
X371906Y392186D01*
X364449Y392186D02*
X364449Y381000D01*
X360212Y381000D02*
X360212Y388457D01*
X356484Y392186D01*
X352755Y388457D01*
X352755Y381000D01*
X352755Y386593D02*
X360212Y386593D01*
X348518Y381000D02*
X348518Y392186D01*
X342925Y392186D01*
X341061Y390321D01*
X341061Y386593D01*
X342925Y384729D01*
X348518Y384729D01*
X344790Y384729D02*
X341061Y381000D01*
X336824Y381000D02*
X336824Y392186D01*
X336824Y381000D02*
X331232Y381000D01*
X329367Y382864D01*
X329367Y390321D01*
X331232Y392186D01*
X336824Y392186D01*
X323266Y392186D02*
X319538Y392186D01*
X323266Y392186D02*
X325130Y390321D01*
X325130Y382864D01*
X323266Y381000D01*
X319538Y381000D01*
X317673Y382864D01*
X317673Y390321D01*
X319538Y392186D01*
X442216Y377708D02*
X442216Y366522D01*
X436623Y366522D01*
X434759Y368386D01*
X434759Y375843D01*
X436623Y377708D01*
X442216Y377708D01*
X430522Y366522D02*
X423065Y366522D01*
X430522Y366522D02*
X423065Y373979D01*
X423065Y375843D01*
X424929Y377708D01*
X428658Y377708D01*
X430522Y375843D01*
X407134Y366522D02*
X403406Y366522D01*
X405270Y366522D02*
X405270Y377708D01*
X407134Y377708D02*
X403406Y377708D01*
X393745Y377708D02*
X391881Y375843D01*
X393745Y377708D02*
X397474Y377708D01*
X399338Y375843D01*
X399338Y373979D01*
X397474Y372115D01*
X393745Y372115D01*
X391881Y370251D01*
X391881Y368386D01*
X393745Y366522D01*
X397474Y366522D01*
X399338Y368386D01*
X370357Y377708D02*
X368493Y375843D01*
X370357Y377708D02*
X374086Y377708D01*
X375950Y375843D01*
X375950Y373979D01*
X374086Y372115D01*
X370357Y372115D01*
X368493Y370251D01*
X368493Y368386D01*
X370357Y366522D01*
X374086Y366522D01*
X375950Y368386D01*
X364256Y366522D02*
X364256Y377708D01*
X364256Y366522D02*
X358663Y366522D01*
X356799Y368386D01*
X356799Y375843D01*
X358663Y377708D01*
X364256Y377708D01*
X352562Y373979D02*
X352562Y366522D01*
X352562Y373979D02*
X348834Y377708D01*
X345105Y373979D01*
X345105Y366522D01*
X345105Y372115D02*
X352562Y372115D01*
X442002Y359501D02*
X442002Y352044D01*
X442002Y359501D02*
X438273Y363230D01*
X434545Y359501D01*
X434545Y352044D01*
X434545Y357637D02*
X442002Y357637D01*
X430308Y352044D02*
X430308Y363230D01*
X422851Y352044D01*
X422851Y363230D01*
X418614Y363230D02*
X418614Y352044D01*
X413021Y352044D01*
X411157Y353908D01*
X411157Y361365D01*
X413021Y363230D01*
X418614Y363230D01*
X395226Y363230D02*
X395226Y352044D01*
X389633Y352044D01*
X387769Y353908D01*
X387769Y361365D01*
X389633Y363230D01*
X395226Y363230D01*
X383532Y361365D02*
X381668Y363230D01*
X377939Y363230D01*
X376075Y361365D01*
X376075Y359501D01*
X377939Y357637D01*
X379804Y357637D01*
X377939Y357637D02*
X376075Y355773D01*
X376075Y353908D01*
X377939Y352044D01*
X381668Y352044D01*
X383532Y353908D01*
X360144Y352044D02*
X356416Y352044D01*
X358280Y352044D02*
X358280Y363230D01*
X360144Y363230D02*
X356416Y363230D01*
X346755Y363230D02*
X344891Y361365D01*
X346755Y363230D02*
X350484Y363230D01*
X352348Y361365D01*
X352348Y359501D01*
X350484Y357637D01*
X346755Y357637D01*
X344891Y355773D01*
X344891Y353908D01*
X346755Y352044D01*
X350484Y352044D01*
X352348Y353908D01*
X323367Y363230D02*
X321503Y361365D01*
X323367Y363230D02*
X327096Y363230D01*
X328960Y361365D01*
X328960Y359501D01*
X327096Y357637D01*
X323367Y357637D01*
X321503Y355773D01*
X321503Y353908D01*
X323367Y352044D01*
X327096Y352044D01*
X328960Y353908D01*
X311674Y363230D02*
X309809Y361365D01*
X311674Y363230D02*
X315402Y363230D01*
X317266Y361365D01*
X317266Y353908D01*
X315402Y352044D01*
X311674Y352044D01*
X309809Y353908D01*
X305572Y352044D02*
X305572Y363230D01*
X305572Y352044D02*
X298115Y352044D01*
D14*
X439615Y648047D02*
X439615Y649379D01*
X439615Y648047D02*
X436952Y645383D01*
X434288Y648047D01*
X434288Y649379D01*
X436952Y645383D02*
X436952Y641388D01*
X429996Y649379D02*
X427333Y649379D01*
X429996Y649379D02*
X431328Y648047D01*
X431328Y642720D01*
X429996Y641388D01*
X427333Y641388D01*
X426001Y642720D01*
X426001Y648047D01*
X427333Y649379D01*
X423041Y649379D02*
X423041Y642720D01*
X421709Y641388D01*
X419046Y641388D01*
X417714Y642720D01*
X417714Y649379D01*
X402472Y649379D02*
X401140Y648047D01*
X402472Y649379D02*
X405135Y649379D01*
X406467Y648047D01*
X406467Y642720D01*
X405135Y641388D01*
X402472Y641388D01*
X401140Y642720D01*
X398180Y641388D02*
X398180Y646715D01*
X395516Y649379D01*
X392853Y646715D01*
X392853Y641388D01*
X392853Y645383D02*
X398180Y645383D01*
X389893Y641388D02*
X389893Y649379D01*
X384566Y641388D01*
X384566Y649379D01*
X373319Y649379D02*
X373319Y642720D01*
X371987Y641388D01*
X369323Y641388D01*
X367991Y642720D01*
X367991Y649379D01*
X361036Y649379D02*
X359704Y648047D01*
X361036Y649379D02*
X363700Y649379D01*
X365032Y648047D01*
X365032Y646715D01*
X363700Y645383D01*
X361036Y645383D01*
X359704Y644052D01*
X359704Y642720D01*
X361036Y641388D01*
X363700Y641388D01*
X365032Y642720D01*
X356745Y649379D02*
X351417Y649379D01*
X356745Y649379D02*
X356745Y641388D01*
X351417Y641388D01*
X354081Y645383D02*
X356745Y645383D01*
X340170Y649379D02*
X340170Y641388D01*
X336175Y641388D01*
X334843Y642720D01*
X334843Y648047D01*
X336175Y649379D01*
X340170Y649379D01*
X331883Y649379D02*
X326556Y649379D01*
X331883Y649379D02*
X331883Y645383D01*
X329220Y646715D01*
X327888Y646715D01*
X326556Y645383D01*
X326556Y642720D01*
X327888Y641388D01*
X330552Y641388D01*
X331883Y642720D01*
X439615Y635879D02*
X439615Y627888D01*
X439615Y635879D02*
X434288Y635879D01*
X436952Y631883D02*
X439615Y631883D01*
X429996Y635879D02*
X427333Y635879D01*
X429996Y635879D02*
X431328Y634547D01*
X431328Y629220D01*
X429996Y627888D01*
X427333Y627888D01*
X426001Y629220D01*
X426001Y634547D01*
X427333Y635879D01*
X423041Y635879D02*
X423041Y627888D01*
X423041Y635879D02*
X419046Y635879D01*
X417714Y634547D01*
X417714Y631883D01*
X419046Y630552D01*
X423041Y630552D01*
X420377Y630552D02*
X417714Y627888D01*
X406467Y627888D02*
X406467Y635879D01*
X401140Y627888D01*
X401140Y635879D01*
X398180Y635879D02*
X392853Y635879D01*
X398180Y635879D02*
X398180Y627888D01*
X392853Y627888D01*
X395516Y631883D02*
X398180Y631883D01*
X388561Y635879D02*
X385897Y635879D01*
X388561Y635879D02*
X389893Y634547D01*
X389893Y629220D01*
X388561Y627888D01*
X385897Y627888D01*
X384566Y629220D01*
X384566Y634547D01*
X385897Y635879D01*
X381606Y635879D02*
X381606Y627888D01*
X381606Y635879D02*
X377610Y635879D01*
X376279Y634547D01*
X376279Y631883D01*
X377610Y630552D01*
X381606Y630552D01*
X373319Y627888D02*
X370655Y627888D01*
X371987Y627888D02*
X371987Y635879D01*
X373319Y635879D02*
X370655Y635879D01*
X367794Y635879D02*
X362467Y627888D01*
X367794Y627888D02*
X362467Y635879D01*
X359507Y635879D02*
X354180Y635879D01*
X359507Y635879D02*
X359507Y627888D01*
X354180Y627888D01*
X356843Y631883D02*
X359507Y631883D01*
X351220Y627888D02*
X351220Y635879D01*
X351220Y627888D02*
X345893Y627888D01*
X211843Y637756D02*
X210511Y639088D01*
X211843Y637756D02*
X211843Y635093D01*
X210511Y633761D01*
X209179Y633761D01*
X207847Y635093D01*
X207847Y637756D01*
X206516Y639088D01*
X205184Y639088D01*
X203852Y637756D01*
X203852Y635093D01*
X205184Y633761D01*
X203852Y642048D02*
X211843Y642048D01*
X203852Y642048D02*
X203852Y646043D01*
X205184Y647375D01*
X210511Y647375D01*
X211843Y646043D01*
X211843Y642048D01*
X209179Y650335D02*
X203852Y650335D01*
X209179Y650335D02*
X211843Y652999D01*
X209179Y655662D01*
X203852Y655662D01*
X207847Y655662D02*
X207847Y650335D01*
X186443Y637756D02*
X185111Y639088D01*
X186443Y637756D02*
X186443Y635093D01*
X185111Y633761D01*
X183779Y633761D01*
X182447Y635093D01*
X182447Y637756D01*
X181116Y639088D01*
X179784Y639088D01*
X178452Y637756D01*
X178452Y635093D01*
X179784Y633761D01*
X186443Y646043D02*
X185111Y647375D01*
X186443Y646043D02*
X186443Y643380D01*
X185111Y642048D01*
X179784Y642048D01*
X178452Y643380D01*
X178452Y646043D01*
X179784Y647375D01*
X178452Y650335D02*
X186443Y650335D01*
X178452Y650335D02*
X178452Y655662D01*
X161043Y637756D02*
X159711Y639088D01*
X161043Y637756D02*
X161043Y635093D01*
X159711Y633761D01*
X154384Y633761D01*
X153052Y635093D01*
X153052Y637756D01*
X154384Y639088D01*
X157047Y639088D01*
X157047Y636424D01*
X153052Y642048D02*
X161043Y642048D01*
X153052Y647375D01*
X161043Y647375D01*
X161043Y650335D02*
X153052Y650335D01*
X153052Y654330D01*
X154384Y655662D01*
X159711Y655662D01*
X161043Y654330D01*
X161043Y650335D01*
X135643Y633761D02*
X130316Y633761D01*
X127652Y636424D01*
X130316Y639088D01*
X135643Y639088D01*
X135643Y642048D02*
X127652Y642048D01*
X127652Y646043D01*
X128984Y647375D01*
X134311Y647375D01*
X135643Y646043D01*
X135643Y642048D01*
X135643Y650335D02*
X127652Y650335D01*
X127652Y654330D01*
X128984Y655662D01*
X134311Y655662D01*
X135643Y654330D01*
X135643Y650335D01*
X553610Y642048D02*
X561601Y642048D01*
X553610Y642048D02*
X553610Y646043D01*
X554942Y647375D01*
X560269Y647375D01*
X561601Y646043D01*
X561601Y642048D01*
X561601Y650335D02*
X561601Y655662D01*
X561601Y650335D02*
X557605Y650335D01*
X558937Y652999D01*
X558937Y654330D01*
X557605Y655662D01*
X554942Y655662D01*
X553610Y654330D01*
X553610Y651667D01*
X554942Y650335D01*
X536201Y637756D02*
X534869Y639088D01*
X536201Y637756D02*
X536201Y635093D01*
X534869Y633761D01*
X529542Y633761D01*
X528210Y635093D01*
X528210Y637756D01*
X529542Y639088D01*
X532205Y639088D01*
X532205Y636424D01*
X528210Y642048D02*
X536201Y642048D01*
X528210Y647375D01*
X536201Y647375D01*
X536201Y650335D02*
X528210Y650335D01*
X528210Y654330D01*
X529542Y655662D01*
X534869Y655662D01*
X536201Y654330D01*
X536201Y650335D01*
X511055Y633761D02*
X505728Y633761D01*
X503064Y636424D01*
X505728Y639088D01*
X511055Y639088D01*
X511055Y642048D02*
X503064Y642048D01*
X503064Y646043D01*
X504396Y647375D01*
X509723Y647375D01*
X511055Y646043D01*
X511055Y642048D01*
X511055Y650335D02*
X503064Y650335D01*
X503064Y654330D01*
X504396Y655662D01*
X509723Y655662D01*
X511055Y654330D01*
X511055Y650335D01*
X743602Y641917D02*
X751593Y641917D01*
X751593Y639254D02*
X751593Y644581D01*
X751593Y647541D02*
X743602Y652868D01*
X743602Y647541D02*
X751593Y652868D01*
X725431Y641540D02*
X717440Y641540D01*
X725431Y641540D02*
X725431Y645535D01*
X724099Y646867D01*
X721435Y646867D01*
X720104Y645535D01*
X720104Y641540D01*
X720104Y644203D02*
X717440Y646867D01*
X717440Y655154D02*
X725431Y649827D01*
X725431Y655154D02*
X717440Y649827D01*
X699777Y636740D02*
X698445Y638072D01*
X699777Y636740D02*
X699777Y634077D01*
X698445Y632745D01*
X693118Y632745D01*
X691786Y634077D01*
X691786Y636740D01*
X693118Y638072D01*
X695781Y638072D01*
X695781Y635408D01*
X691786Y641032D02*
X699777Y641032D01*
X691786Y646359D01*
X699777Y646359D01*
X699777Y649319D02*
X691786Y649319D01*
X691786Y653314D01*
X693118Y654646D01*
X698445Y654646D01*
X699777Y653314D01*
X699777Y649319D01*
X674885Y632999D02*
X669558Y632999D01*
X666894Y635662D01*
X669558Y638326D01*
X674885Y638326D01*
X674885Y641286D02*
X666894Y641286D01*
X666894Y645281D01*
X668226Y646613D01*
X673553Y646613D01*
X674885Y645281D01*
X674885Y641286D01*
X674885Y649573D02*
X666894Y649573D01*
X666894Y653568D01*
X668226Y654900D01*
X673553Y654900D01*
X674885Y653568D01*
X674885Y649573D01*
X875956Y659930D02*
X875956Y667921D01*
X871960Y667921D01*
X870628Y666589D01*
X870628Y663925D01*
X871960Y662594D01*
X875956Y662594D01*
X873292Y662594D02*
X870628Y659930D01*
X862341Y659930D02*
X867668Y667921D01*
X862341Y667921D02*
X867668Y659930D01*
X847099Y667921D02*
X845767Y666589D01*
X847099Y667921D02*
X849763Y667921D01*
X851094Y666589D01*
X851094Y661262D01*
X849763Y659930D01*
X847099Y659930D01*
X845767Y661262D01*
X842807Y659930D02*
X842807Y665257D01*
X840144Y667921D01*
X837480Y665257D01*
X837480Y659930D01*
X837480Y663925D02*
X842807Y663925D01*
X834520Y659930D02*
X834520Y667921D01*
X829193Y659930D01*
X829193Y667921D01*
X817946Y667921D02*
X817946Y659930D01*
X817946Y663925D02*
X812619Y663925D01*
X812619Y659930D02*
X812619Y667921D01*
X809659Y665257D02*
X809659Y659930D01*
X809659Y665257D02*
X806995Y667921D01*
X804332Y665257D01*
X804332Y659930D01*
X804332Y663925D02*
X809659Y663925D01*
X801372Y662594D02*
X801372Y667921D01*
X801372Y662594D02*
X798708Y659930D01*
X796045Y662594D01*
X796045Y667921D01*
X793085Y667921D02*
X787758Y667921D01*
X793085Y667921D02*
X793085Y659930D01*
X787758Y659930D01*
X790421Y663925D02*
X793085Y663925D01*
X875956Y654421D02*
X875956Y649094D01*
X873292Y646430D01*
X870628Y649094D01*
X870628Y654421D01*
X866337Y654421D02*
X863673Y654421D01*
X866337Y654421D02*
X867668Y653089D01*
X867668Y647762D01*
X866337Y646430D01*
X863673Y646430D01*
X862341Y647762D01*
X862341Y653089D01*
X863673Y654421D01*
X859381Y654421D02*
X859381Y646430D01*
X854054Y646430D01*
X848431Y646430D02*
X848431Y654421D01*
X851094Y654421D02*
X845767Y654421D01*
X842807Y651757D02*
X842807Y646430D01*
X842807Y651757D02*
X840144Y654421D01*
X837480Y651757D01*
X837480Y646430D01*
X837480Y650425D02*
X842807Y650425D01*
X830525Y654421D02*
X829193Y653089D01*
X830525Y654421D02*
X833188Y654421D01*
X834520Y653089D01*
X834520Y647762D01*
X833188Y646430D01*
X830525Y646430D01*
X829193Y647762D01*
X829193Y650425D01*
X831857Y650425D01*
X826233Y654421D02*
X820906Y654421D01*
X826233Y654421D02*
X826233Y646430D01*
X820906Y646430D01*
X823570Y650425D02*
X826233Y650425D01*
X809659Y654421D02*
X809659Y646430D01*
X805664Y646430D01*
X804332Y647762D01*
X804332Y653089D01*
X805664Y654421D01*
X809659Y654421D01*
X801372Y646430D02*
X798708Y646430D01*
X800040Y646430D02*
X800040Y654421D01*
X801372Y654421D02*
X798708Y654421D01*
X795847Y654421D02*
X795847Y649094D01*
X793184Y646430D01*
X790520Y649094D01*
X790520Y654421D01*
X787560Y646430D02*
X784897Y646430D01*
X786228Y646430D02*
X786228Y654421D01*
X784897Y654421D02*
X787560Y654421D01*
X782035Y654421D02*
X782035Y646430D01*
X778040Y646430D01*
X776708Y647762D01*
X776708Y653089D01*
X778040Y654421D01*
X782035Y654421D01*
X773748Y654421D02*
X768421Y654421D01*
X773748Y654421D02*
X773748Y646430D01*
X768421Y646430D01*
X771085Y650425D02*
X773748Y650425D01*
X765461Y646430D02*
X765461Y654421D01*
X761466Y654421D01*
X760134Y653089D01*
X760134Y650425D01*
X761466Y649094D01*
X765461Y649094D01*
X762798Y649094D02*
X760134Y646430D01*
D12*
X618754Y473863D02*
X607568Y473863D01*
X618754Y477591D02*
X618754Y470134D01*
X618754Y481828D02*
X607568Y489285D01*
X607568Y481828D02*
X618754Y489285D01*
X622808Y470408D02*
X633994Y470408D01*
X633994Y476001D01*
X632129Y477865D01*
X628401Y477865D01*
X626537Y476001D01*
X626537Y470408D01*
X626537Y474137D02*
X622808Y477865D01*
X622808Y489559D02*
X633994Y482102D01*
X633994Y489559D02*
X622808Y482102D01*
D11*
X536194Y481838D02*
X536194Y489966D01*
X536194Y481838D02*
X558292Y459740D01*
X613410Y65278D02*
X613410Y55372D01*
X613410Y65278D02*
X620014Y71882D01*
X636435Y71638D02*
X643039Y65034D01*
X643098Y64940D02*
X643098Y55034D01*
D12*
X568144Y272641D02*
X568144Y283827D01*
X566279Y280098D02*
X568144Y278234D01*
X566279Y280098D02*
X562551Y280098D01*
X560687Y278234D01*
X560687Y272641D01*
X554585Y274505D02*
X554585Y281962D01*
X554585Y274505D02*
X552721Y272641D01*
X552721Y280098D02*
X556450Y280098D01*
X546789Y281962D02*
X546789Y274505D01*
X544925Y272641D01*
X544925Y280098D02*
X548654Y280098D01*
X540858Y280098D02*
X540858Y268913D01*
X540858Y280098D02*
X535265Y280098D01*
X533401Y278234D01*
X533401Y274505D01*
X535265Y272641D01*
X540858Y272641D01*
X529164Y272641D02*
X523571Y272641D01*
X521707Y274505D01*
X523571Y276370D01*
X527299Y276370D01*
X529164Y278234D01*
X527299Y280098D01*
X521707Y280098D01*
X517470Y280098D02*
X515606Y280098D01*
X515606Y278234D01*
X517470Y278234D01*
X517470Y280098D01*
X517470Y274505D02*
X515606Y274505D01*
X515606Y272641D01*
X517470Y272641D01*
X517470Y274505D01*
X511623Y272641D02*
X504166Y283827D01*
X492472Y283827D02*
X499929Y272641D01*
X488235Y274505D02*
X488235Y280098D01*
X488235Y274505D02*
X486371Y272641D01*
X484506Y274505D01*
X482642Y272641D01*
X480778Y274505D01*
X480778Y280098D01*
X476541Y280098D02*
X476541Y274505D01*
X474677Y272641D01*
X472812Y274505D01*
X470948Y272641D01*
X469084Y274505D01*
X469084Y280098D01*
X464847Y280098D02*
X464847Y274505D01*
X462983Y272641D01*
X461118Y274505D01*
X459254Y272641D01*
X457390Y274505D01*
X457390Y280098D01*
X453153Y274505D02*
X453153Y272641D01*
X453153Y274505D02*
X451289Y274505D01*
X451289Y272641D01*
X453153Y272641D01*
X443577Y268913D02*
X441713Y268913D01*
X439849Y270777D01*
X439849Y280098D01*
X445442Y280098D01*
X447306Y278234D01*
X447306Y274505D01*
X445442Y272641D01*
X439849Y272641D01*
X435612Y280098D02*
X433748Y280098D01*
X433748Y272641D01*
X435612Y272641D02*
X431884Y272641D01*
X433748Y283827D02*
X433748Y285691D01*
X425952Y281962D02*
X425952Y274505D01*
X424088Y272641D01*
X424088Y280098D02*
X427816Y280098D01*
X420020Y283827D02*
X420020Y272641D01*
X420020Y278234D02*
X418156Y280098D01*
X414427Y280098D01*
X412563Y278234D01*
X412563Y272641D01*
X408326Y274505D02*
X408326Y280098D01*
X408326Y274505D02*
X406462Y272641D01*
X400869Y272641D01*
X400869Y280098D01*
X396632Y283827D02*
X396632Y272641D01*
X391039Y272641D01*
X389175Y274505D01*
X389175Y278234D01*
X391039Y280098D01*
X396632Y280098D01*
X384938Y274505D02*
X384938Y272641D01*
X384938Y274505D02*
X383074Y274505D01*
X383074Y272641D01*
X384938Y272641D01*
X377227Y280098D02*
X371634Y280098D01*
X377227Y280098D02*
X379091Y278234D01*
X379091Y274505D01*
X377227Y272641D01*
X371634Y272641D01*
X365533Y272641D02*
X361804Y272641D01*
X359940Y274505D01*
X359940Y278234D01*
X361804Y280098D01*
X365533Y280098D01*
X367397Y278234D01*
X367397Y274505D01*
X365533Y272641D01*
X355703Y272641D02*
X355703Y280098D01*
X353839Y280098D01*
X351975Y278234D01*
X351975Y272641D01*
X351975Y278234D02*
X350111Y280098D01*
X348246Y278234D01*
X348246Y272641D01*
X344009Y272641D02*
X336552Y283827D01*
X326723Y283827D02*
X324858Y281962D01*
X326723Y283827D02*
X330451Y283827D01*
X332315Y281962D01*
X332315Y280098D01*
X330451Y278234D01*
X326723Y278234D01*
X324858Y276370D01*
X324858Y274505D01*
X326723Y272641D01*
X330451Y272641D01*
X332315Y274505D01*
X318757Y272641D02*
X315029Y272641D01*
X318757Y272641D02*
X320621Y274505D01*
X320621Y278234D01*
X318757Y280098D01*
X315029Y280098D01*
X313164Y278234D01*
X313164Y276370D01*
X320621Y276370D01*
X307063Y274505D02*
X307063Y281962D01*
X307063Y274505D02*
X305199Y272641D01*
X305199Y280098D02*
X308927Y280098D01*
X299267Y281962D02*
X299267Y274505D01*
X297403Y272641D01*
X297403Y280098D02*
X301131Y280098D01*
X291471Y272641D02*
X287743Y272641D01*
X285878Y274505D01*
X285878Y278234D01*
X287743Y280098D01*
X291471Y280098D01*
X293335Y278234D01*
X293335Y274505D01*
X291471Y272641D01*
X281641Y272641D02*
X281641Y280098D01*
X281641Y276370D02*
X277913Y280098D01*
X276049Y280098D01*
X270032Y272641D02*
X266304Y272641D01*
X270032Y272641D02*
X271897Y274505D01*
X271897Y278234D01*
X270032Y280098D01*
X266304Y280098D01*
X264439Y278234D01*
X264439Y276370D01*
X271897Y276370D01*
X260203Y280098D02*
X252746Y280098D01*
X260203Y272641D01*
X252746Y272641D01*
X246644Y272641D02*
X242916Y272641D01*
X246644Y272641D02*
X248509Y274505D01*
X248509Y278234D01*
X246644Y280098D01*
X242916Y280098D01*
X241052Y278234D01*
X241052Y276370D01*
X248509Y276370D01*
X236815Y280098D02*
X236815Y272641D01*
X236815Y276370D02*
X233086Y280098D01*
X231222Y280098D01*
X225205Y272641D02*
X221477Y272641D01*
X219613Y274505D01*
X219613Y278234D01*
X221477Y280098D01*
X225205Y280098D01*
X227070Y278234D01*
X227070Y274505D01*
X225205Y272641D01*
X215376Y272641D02*
X207919Y283827D01*
X203682Y283827D02*
X203682Y272641D01*
X203682Y276370D02*
X198089Y272641D01*
X203682Y276370D02*
X198089Y280098D01*
X192072Y272641D02*
X188344Y272641D01*
X192072Y272641D02*
X193937Y274505D01*
X193937Y278234D01*
X192072Y280098D01*
X188344Y280098D01*
X186480Y278234D01*
X186480Y276370D01*
X193937Y276370D01*
X182243Y274505D02*
X182243Y280098D01*
X182243Y274505D02*
X180379Y272641D01*
X174786Y272641D01*
X174786Y270777D02*
X174786Y280098D01*
X174786Y270777D02*
X176650Y268913D01*
X178514Y268913D01*
X170549Y272641D02*
X170549Y283827D01*
X170549Y272641D02*
X164956Y272641D01*
X163092Y274505D01*
X163092Y278234D01*
X164956Y280098D01*
X170549Y280098D01*
X156991Y272641D02*
X153262Y272641D01*
X151398Y274505D01*
X151398Y278234D01*
X153262Y280098D01*
X156991Y280098D01*
X158855Y278234D01*
X158855Y274505D01*
X156991Y272641D01*
X147161Y272641D02*
X147161Y283827D01*
X145297Y280098D02*
X147161Y278234D01*
X145297Y280098D02*
X141568Y280098D01*
X139704Y278234D01*
X139704Y272641D01*
X179781Y495046D02*
X198831Y495046D01*
X205181Y501396D01*
X205181Y514096D02*
X198831Y520446D01*
X205181Y501396D02*
X211531Y495046D01*
X224231Y495046D01*
X230581Y501396D01*
X230581Y514096D02*
X224231Y520446D01*
X211531Y520446D01*
X205181Y514096D01*
X179781Y520446D02*
X179781Y495046D01*
X179781Y520446D02*
X198831Y520446D01*
X230581Y501396D02*
X236931Y495046D01*
X249631Y495046D01*
X255981Y501396D01*
X255981Y514096D02*
X249631Y520446D01*
X236931Y520446D01*
X230581Y514096D01*
X262331Y495046D02*
X275031Y495046D01*
X281381Y501396D01*
X281381Y514096D02*
X275031Y520446D01*
X255981Y501396D02*
X262331Y495046D01*
X255981Y514096D02*
X262331Y520446D01*
X275031Y520446D01*
X287731Y495046D02*
X300431Y495046D01*
X306781Y501396D01*
X306781Y514096D02*
X300431Y520446D01*
X306781Y501396D02*
X313131Y495046D01*
X325831Y495046D01*
X332181Y501396D01*
X332181Y514096D02*
X325831Y520446D01*
X313131Y520446D01*
X306781Y514096D01*
X287731Y495046D02*
X281381Y501396D01*
X281381Y514096D02*
X287731Y520446D01*
X300431Y520446D01*
X332181Y501396D02*
X338531Y495046D01*
X351231Y495046D01*
X357581Y501396D01*
X357581Y514096D02*
X351231Y520446D01*
X338531Y520446D01*
X332181Y514096D01*
X363931Y495046D02*
X376631Y495046D01*
X382981Y501396D01*
X382981Y514096D02*
X376631Y520446D01*
X357581Y501396D02*
X363931Y495046D01*
X357581Y514096D02*
X363931Y520446D01*
X376631Y520446D01*
X389331Y495046D02*
X402031Y495046D01*
X408381Y501396D01*
X408381Y514096D02*
X402031Y520446D01*
X408381Y501396D02*
X414731Y495046D01*
X427431Y495046D01*
X433781Y501396D01*
X433781Y514096D02*
X427431Y520446D01*
X414731Y520446D01*
X408381Y514096D01*
X389331Y495046D02*
X382981Y501396D01*
X382981Y514096D02*
X389331Y520446D01*
X402031Y520446D01*
X433781Y514096D02*
X433781Y501396D01*
X447751Y495046D02*
X466801Y495046D01*
X473151Y501396D01*
X473151Y514096D02*
X466801Y520446D01*
X473151Y501396D02*
X479501Y495046D01*
X492201Y495046D01*
X498551Y501396D01*
X498551Y514096D02*
X492201Y520446D01*
X479501Y520446D01*
X473151Y514096D01*
X447751Y520446D02*
X447751Y495046D01*
X447751Y520446D02*
X466801Y520446D01*
X498551Y501396D02*
X504901Y495046D01*
X517601Y495046D01*
X523951Y501396D01*
X523951Y514096D02*
X517601Y520446D01*
X504901Y520446D01*
X498551Y514096D01*
X530301Y495046D02*
X543001Y495046D01*
X549351Y501396D01*
X549351Y514096D02*
X543001Y520446D01*
X523951Y501396D02*
X530301Y495046D01*
X523951Y514096D02*
X530301Y520446D01*
X543001Y520446D01*
X555701Y495046D02*
X568401Y495046D01*
X574751Y501396D01*
X574751Y514096D02*
X568401Y520446D01*
X574751Y501396D02*
X581101Y495046D01*
X593801Y495046D01*
X600151Y501396D01*
X600151Y514096D02*
X593801Y520446D01*
X581101Y520446D01*
X574751Y514096D01*
X555701Y495046D02*
X549351Y501396D01*
X549351Y514096D02*
X555701Y520446D01*
X568401Y520446D01*
X600151Y501396D02*
X606501Y495046D01*
X619201Y495046D01*
X625551Y501396D01*
X625551Y514096D02*
X619201Y520446D01*
X606501Y520446D01*
X600151Y514096D01*
X631901Y495046D02*
X644601Y495046D01*
X650951Y501396D01*
X650951Y514096D01*
X644601Y520446D01*
X625551Y501396D02*
X631901Y495046D01*
X625551Y514096D02*
X631901Y520446D01*
X644601Y520446D01*
X518871Y12446D02*
X499821Y12446D01*
X518871Y12446D02*
X525221Y18796D01*
X525221Y31496D02*
X518871Y37846D01*
X525221Y18796D02*
X531571Y12446D01*
X544271Y12446D01*
X550621Y18796D01*
X550621Y31496D02*
X544271Y37846D01*
X531571Y37846D01*
X525221Y31496D01*
X499821Y37846D02*
X499821Y12446D01*
X499821Y37846D02*
X518871Y37846D01*
X550621Y18796D02*
X556971Y12446D01*
X569671Y12446D01*
X576021Y18796D01*
X576021Y31496D02*
X569671Y37846D01*
X556971Y37846D01*
X550621Y31496D01*
X582371Y12446D02*
X595071Y12446D01*
X601421Y18796D01*
X601421Y31496D02*
X595071Y37846D01*
X601421Y18796D02*
X607771Y12446D01*
X620471Y12446D01*
X626821Y18796D01*
X626821Y31496D02*
X620471Y37846D01*
X607771Y37846D01*
X601421Y31496D01*
X582371Y12446D02*
X576021Y18796D01*
X576021Y31496D02*
X582371Y37846D01*
X595071Y37846D01*
X626821Y18796D02*
X633171Y12446D01*
X645871Y12446D01*
X652221Y18796D01*
X652221Y31496D02*
X645871Y37846D01*
X633171Y37846D01*
X626821Y31496D01*
X652221Y31496D02*
X652221Y18796D01*
X289001Y12446D02*
X269951Y12446D01*
X289001Y12446D02*
X295351Y18796D01*
X295351Y31496D02*
X289001Y37846D01*
X295351Y18796D02*
X301701Y12446D01*
X314401Y12446D01*
X320751Y18796D01*
X320751Y31496D02*
X314401Y37846D01*
X301701Y37846D01*
X295351Y31496D01*
X269951Y37846D02*
X269951Y12446D01*
X269951Y37846D02*
X289001Y37846D01*
X320751Y18796D02*
X327101Y12446D01*
X339801Y12446D01*
X346151Y18796D01*
X346151Y31496D02*
X339801Y37846D01*
X327101Y37846D01*
X320751Y31496D01*
X352501Y12446D02*
X365201Y12446D01*
X371551Y18796D01*
X371551Y31496D02*
X365201Y37846D01*
X346151Y18796D02*
X352501Y12446D01*
X346151Y31496D02*
X352501Y37846D01*
X365201Y37846D01*
X377901Y12446D02*
X390601Y12446D01*
X396951Y18796D01*
X396951Y31496D02*
X390601Y37846D01*
X396951Y18796D02*
X403301Y12446D01*
X416001Y12446D01*
X422351Y18796D01*
X422351Y31496D02*
X416001Y37846D01*
X403301Y37846D01*
X396951Y31496D01*
X377901Y12446D02*
X371551Y18796D01*
X371551Y31496D02*
X377901Y37846D01*
X390601Y37846D01*
X422351Y18796D02*
X428701Y12446D01*
X441401Y12446D01*
X447751Y18796D01*
X447751Y31496D02*
X441401Y37846D01*
X428701Y37846D01*
X422351Y31496D01*
X454101Y12446D02*
X466801Y12446D01*
X473151Y18796D01*
X473151Y31496D01*
X466801Y37846D01*
X447751Y18796D02*
X454101Y12446D01*
X447751Y31496D02*
X454101Y37846D01*
X466801Y37846D01*
M02*
